<?xml version="1.0" encoding="UTF-8"?>
<!DOCTYPE svg PUBLIC "-//W3C//DTD SVG 1.1//EN" "http://www.w3.org/Graphics/SVG/1.1/DTD/svg11.dtd">
<!-- Creator: CorelDRAW X7 -->
<svg xmlns="http://www.w3.org/2000/svg" xml:space="preserve" width="38.1mm" height="13.6072mm" version="1.1" style="shape-rendering:geometricPrecision; text-rendering:geometricPrecision; image-rendering:optimizeQuality; fill-rule:evenodd; clip-rule:evenodd"
viewBox="0 0 2260 807"
 xmlns:xlink="http://www.w3.org/1999/xlink">
 <defs>
  <style type="text/css">
   <![CDATA[
    .fil0 {fill:none}
    .fil2 {fill:white}
    .fil1 {fill:white;fill-rule:nonzero}
    .fil3 {fill:url(#id0);fill-rule:nonzero}
    .fil5 {fill:url(#id1);fill-rule:nonzero}
    .fil4 {fill:url(#id2);fill-rule:nonzero}
   ]]>
  </style>
  <linearGradient id="id0" gradientUnits="userSpaceOnUse" x1="616.296" y1="482.666" x2="321.687" y2="730.003">
   <stop offset="0" style="stop-opacity:1; stop-color:#00BDF4"/>
   <stop offset="0.509804" style="stop-opacity:1; stop-color:#4B6CDD"/>
   <stop offset="1" style="stop-opacity:1; stop-color:#971AC6"/>
  </linearGradient>
  <linearGradient id="id1" gradientUnits="userSpaceOnUse" x1="608.548" y1="191.207" x2="247.082" y2="616.076">
   <stop offset="0" style="stop-opacity:1; stop-color:#00BDF4"/>
   <stop offset="0.458824" style="stop-opacity:1; stop-color:#641CF4"/>
   <stop offset="1" style="stop-opacity:1; stop-color:#FF1FD6"/>
  </linearGradient>
  <linearGradient id="id2" gradientUnits="userSpaceOnUse" xlink:href="#id1" x1="423.54" y1="170.763" x2="335.059" y2="274.254">
  </linearGradient>
 </defs>
 <g id="Layer_x0020_1">
  <metadata id="CorelCorpID_0Corel-Layer"/>
  <g id="_3109227677648">
   <rect class="fil0" width="2260" height="807"/>
   <g>
    <g>
     <path class="fil1" d="M981 282l23 0 0 14 -23 0 0 0 0 -14zm-96 -25l10 -10 0 0 2 3 2 2 2 2 3 2 2 1 2 2 2 2 3 2 2 1 2 2 3 1 2 2 3 1 2 1 3 1 2 1 3 1 3 1 3 1 2 1 3 1 3 1 3 0 3 1 3 0 3 1 3 0 4 1 3 0 3 0 3 0 4 0 0 14 -4 0 -4 0 -3 0 -4 0 -3 0 -4 -1 -3 0 -3 -1 -4 -1 -3 0 -3 -1 -4 -1 -3 -1 -3 -1 -3 -1 -3 -1 -3 -2 -3 -1 -3 -1 -3 -2 -3 -1 -2 -2 -3 -2 -3 -2 -2 -2 -3 -2 -2 -2 -3 -2 -2 -2 -3 -2 -2 -3 -2 -2 0 0zm-33 -84l15 0 0 0 0 3 0 3 0 2 0 3 0 3 1 2 0 3 0 2 1 3 0 2 1 3 1 2 0 2 1 3 1 2 1 2 1 3 1 2 1 2 1 2 1 3 1 2 1 2 2 2 1 2 2 2 1 2 2 2 1 2 2 2 1 2 2 2 -10 10 -2 -2 -2 -2 -2 -3 -2 -2 -2 -2 -1 -3 -2 -2 -1 -2 -2 -3 -1 -2 -2 -3 -1 -2 -1 -3 -1 -2 -1 -3 -2 -2 -1 -3 0 -3 -1 -2 -1 -3 -1 -3 0 -3 -1 -2 -1 -3 0 -3 -1 -3 0 -3 0 -3 0 -3 -1 -3 0 -3 0 -3 0 0zm32 -83l11 10 0 0 -2 2 -2 2 -1 2 -2 2 -1 2 -2 2 -1 2 -1 2 -2 2 -1 2 -1 2 -1 3 -1 2 -1 2 -1 2 -1 3 -1 2 -1 2 -1 2 0 3 -1 2 -1 3 0 2 -1 3 0 2 0 3 -1 2 0 3 0 2 0 3 0 3 0 2 -15 0 0 -3 0 -3 1 -2 0 -3 0 -3 0 -3 1 -3 0 -3 1 -3 0 -2 1 -3 1 -3 1 -3 0 -2 1 -3 1 -3 1 -2 2 -3 1 -2 1 -3 1 -2 2 -3 1 -2 1 -3 2 -2 2 -2 1 -3 2 -2 2 -2 2 -3 1 -2 2 -2 0 0zm97 -40l0 15 0 0 -3 0 -3 0 -4 0 -3 0 -3 1 -3 0 -4 0 -3 1 -3 1 -3 0 -3 1 -3 1 -2 1 -3 0 -3 1 -3 2 -2 1 -3 1 -3 1 -2 1 -3 2 -2 1 -2 2 -3 1 -2 2 -2 2 -3 2 -2 2 -2 1 -2 3 -2 2 -2 2 -11 -10 3 -2 2 -3 2 -2 3 -2 2 -2 3 -2 2 -2 3 -2 3 -2 2 -2 3 -2 3 -1 3 -2 3 -1 3 -1 3 -2 3 -1 3 -1 3 -1 3 -1 4 -1 3 -1 3 -1 4 0 3 -1 4 0 3 -1 4 0 3 0 4 0 4 -1 3 0 0 0zm23 15l-23 0 0 -15 23 0 7 8 -7 7zm0 -15l7 0 0 8 -7 -8zm-7 37l0 -29 14 0 0 29 -7 7 -7 -7zm14 0l0 7 -7 0 7 -7zm-27 -8l20 0 0 15 -20 0 0 0 0 -15zm-57 32l-8 -12 0 0 1 -1 2 -1 2 -1 2 -1 1 -1 2 -1 2 -1 2 -1 2 -1 2 -1 2 -1 2 -1 2 -1 2 0 2 -1 2 -1 2 0 2 -1 2 0 2 -1 2 0 3 -1 2 0 2 0 2 -1 2 0 3 0 2 0 2 0 3 0 2 0 2 -1 0 15 -2 0 -2 0 -2 0 -2 0 -2 0 -2 0 -2 1 -2 0 -2 0 -2 1 -2 0 -2 0 -2 1 -1 0 -2 1 -2 0 -2 1 -2 0 -1 1 -2 1 -2 0 -1 1 -2 1 -2 1 -1 0 -2 1 -1 1 -2 1 -2 1 -1 1 -2 1 -1 1 0 0zm-35 37l0 14 -7 -8 0 -2 1 -3 0 -2 1 -2 0 -2 1 -2 0 -1 1 -2 1 -2 1 -2 0 -2 1 -2 1 -2 1 -1 1 -2 1 -2 1 -2 1 -1 2 -2 1 -1 1 -2 1 -2 2 -1 1 -2 1 -1 2 -2 1 -1 2 -1 2 -2 1 -1 2 -1 2 -2 8 12 -1 1 -2 1 -1 1 -2 1 -1 2 -1 1 -1 1 -2 1 -1 1 -1 2 -1 1 -1 1 -1 2 -1 1 -1 1 -1 2 0 1 -1 1 -1 2 -1 1 0 2 -1 1 -1 2 0 2 -1 1 0 2 -1 1 0 2 -1 2 0 2 -1 1 0 2 -7 -8zm0 14l-9 0 2 -8 7 8zm112 0l-112 0 0 -14 112 0 7 7 -7 7zm0 -14l7 0 0 7 -7 -7zm-7 36l0 -29 14 0 0 29 -7 7 -7 -7zm14 0l0 7 -7 0 7 -7zm-119 -7l112 0 0 14 -112 0 -7 -6 7 -8zm-7 8l-1 -8 8 0 -7 8zm39 48l-10 11 0 0 -1 -2 -2 -1 -1 -2 -2 -1 -1 -2 -2 -1 -1 -2 -1 -1 -1 -2 -2 -2 -1 -2 -1 -1 -1 -2 -1 -2 -1 -2 -1 -2 -1 -1 -1 -2 -1 -2 0 -2 -1 -2 -1 -2 0 -2 -1 -2 -1 -2 0 -2 -1 -2 0 -3 0 -2 -1 -2 0 -2 0 -2 14 -2 0 2 1 2 0 2 0 2 1 2 0 1 0 2 1 2 0 2 1 1 0 2 1 2 1 1 0 2 1 1 1 2 1 2 0 1 1 2 1 1 1 2 1 1 1 1 1 2 1 1 1 2 2 1 1 1 1 2 1 1 2 1 1 1 0 0zm55 20l0 14 0 0 -2 0 -3 0 -2 0 -2 0 -3 0 -2 0 -2 -1 -2 0 -3 -1 -2 0 -2 0 -2 -1 -2 0 -2 -1 -2 -1 -2 0 -2 -1 -2 -1 -2 -1 -2 -1 -2 -1 -2 -1 -2 -1 -2 -1 -2 -1 -1 -1 -2 -1 -2 -2 -2 -1 -1 -1 -2 -2 -2 -1 10 -11 1 2 2 1 1 1 2 1 1 1 1 1 2 1 1 1 2 1 2 1 1 0 2 1 1 1 2 1 2 0 1 1 2 1 2 0 2 1 1 0 2 1 2 0 2 0 2 1 2 0 2 0 2 0 2 1 2 0 2 0 2 0 2 0 0 0zm25 14l-25 0 0 -14 25 0 7 7 -7 7zm0 -14l7 0 0 7 -7 -7zm-7 36l0 -29 14 0 0 29 -7 7 -7 -7zm14 0l0 7 -7 0 7 -7z"/>
    </g>
    <g>
     <path id="1" class="fil1" d="M1127 282l29 0 0 14 -29 0 0 0 0 -14zm-28 12l3 -14 0 0 1 0 0 0 1 0 1 0 0 1 1 0 1 0 1 0 0 0 1 0 1 0 1 0 0 0 1 0 1 1 1 0 0 0 1 0 1 0 1 0 1 0 1 0 0 0 1 0 1 0 1 0 1 0 1 0 1 0 1 0 0 0 1 0 0 14 -1 0 -1 0 -1 0 -1 0 0 0 -1 0 -1 0 -1 0 -1 0 -1 0 -1 0 -1 0 -1 0 -1 0 -1 0 -1 0 0 0 -1 0 -1 0 -1 0 -1 -1 -1 0 -1 0 0 0 -1 0 -1 0 -1 0 -1 0 0 -1 -1 0 -1 0 -1 0 0 0zm-25 -11l8 -12 0 0 1 1 0 0 1 1 1 0 0 0 1 1 0 0 1 0 1 1 0 0 1 0 0 1 1 0 1 0 0 1 1 0 1 0 0 0 1 1 0 0 1 0 1 0 0 0 1 1 1 0 0 0 1 0 0 0 1 1 1 0 0 0 1 0 -3 14 -1 0 0 0 -1 -1 -1 0 -1 0 -1 0 0 0 -1 -1 -1 0 -1 0 -1 0 -1 -1 0 0 -1 0 -1 -1 -1 0 0 0 -1 -1 -1 0 -1 0 -1 -1 0 0 -1 -1 -1 0 -1 0 0 -1 -1 0 -1 -1 -1 0 0 -1 -1 0 -1 -1 0 0zm-28 -37l13 -5 0 0 1 2 0 1 1 1 0 1 1 1 0 1 1 1 0 1 1 2 0 1 1 1 1 1 0 1 1 1 1 1 0 0 1 1 1 1 0 1 1 1 1 1 1 1 1 1 1 0 0 1 1 1 1 1 1 1 1 0 1 1 1 1 1 0 -8 12 -1 -1 -1 0 -2 -1 -1 -1 -1 -1 -1 -1 -1 -1 -1 -1 -1 -1 -1 -1 -1 -1 -1 -1 -1 -1 -1 -2 -1 -1 -1 -1 -1 -1 -1 -1 -1 -1 0 -2 -1 -1 -1 -1 -1 -2 0 -1 -1 -1 -1 -2 0 -1 -1 -1 -1 -2 0 -1 -1 -2 0 -1 0 0zm-6 -38l14 0 0 0 0 1 0 1 0 1 1 2 0 1 0 1 0 1 0 1 0 1 0 1 0 1 0 2 0 1 0 1 1 1 0 1 0 1 0 1 0 1 0 1 1 1 0 1 0 1 0 1 0 1 1 1 0 1 0 1 0 1 1 0 0 1 0 1 -13 5 -1 -1 0 -1 0 -1 -1 -1 0 -1 0 -2 0 -1 -1 -1 0 -1 0 -1 0 -1 -1 -1 0 -2 0 -1 0 -1 0 -1 -1 -1 0 -1 0 -2 0 -1 0 -1 0 -1 0 -2 -1 -1 0 -1 0 -1 0 -2 0 -1 0 -1 0 -2 0 -1 0 -1 0 0zm14 -150l0 150 -14 0 0 -150 7 -8 7 8zm-14 0l0 -8 7 0 -7 8zm38 7l-31 0 0 -15 31 0 8 8 -8 7zm0 -15l8 0 0 8 -8 -8zm-7 158l0 -150 15 0 0 150 0 0 -15 0zm16 19l-14 3 0 0 0 0 0 -1 0 -1 0 0 0 -1 0 0 0 -1 -1 -1 0 0 0 -1 0 -1 0 0 0 -1 0 -1 0 0 0 -1 0 -1 0 0 0 -1 0 -1 -1 -1 0 0 0 -1 0 -1 0 -1 0 0 0 -1 0 -1 0 -1 0 -1 0 0 0 -1 15 0 0 1 0 0 0 1 0 1 0 0 0 1 0 1 0 1 0 0 0 1 0 1 0 0 0 1 0 0 0 1 0 1 0 0 0 1 0 0 0 1 0 0 0 1 0 0 1 1 0 0 0 1 0 0 0 1 0 0 0 1 0 0 0 1 0 0zm10 17l-9 11 0 0 -1 -1 -1 0 0 -1 -1 -1 0 0 -1 -1 -1 -1 0 0 -1 -1 0 -1 -1 -1 0 0 -1 -1 0 -1 -1 -1 0 0 -1 -1 0 -1 0 -1 -1 0 0 -1 -1 -1 0 -1 0 -1 -1 -1 0 -1 0 0 -1 -1 0 -1 0 -1 0 -1 -1 -1 14 -3 1 0 0 1 0 1 0 0 0 1 1 1 0 0 0 1 0 0 1 1 0 1 0 0 0 1 1 0 0 1 0 1 1 0 0 1 0 0 1 1 0 0 0 1 1 0 0 1 1 0 0 1 0 0 1 1 0 0 1 0 0 1 0 0 0 0zm15 8l-3 14 0 0 -1 0 -1 -1 -1 0 0 0 -1 0 -1 0 0 -1 -1 0 -1 0 -1 0 0 -1 -1 0 -1 0 0 -1 -1 0 -1 0 0 -1 -1 0 0 0 -1 -1 -1 0 0 -1 -1 0 -1 0 0 -1 -1 0 0 -1 -1 0 -1 -1 0 0 -1 -1 0 0 9 -11 1 1 0 0 1 0 0 1 0 0 1 0 0 1 1 0 0 0 1 0 0 1 0 0 1 0 0 1 1 0 0 0 1 0 0 0 1 1 0 0 0 0 1 0 0 0 1 1 0 0 1 0 0 0 1 0 0 0 1 1 0 0 1 0 0 0zm15 1l0 14 0 0 -1 0 -1 0 0 0 -1 0 -1 0 0 0 -1 0 -1 0 0 0 -1 0 0 0 -1 0 -1 0 0 0 -1 0 0 0 -1 0 0 0 -1 0 0 0 -1 0 -1 0 0 0 -1 0 0 -1 -1 0 0 0 0 0 -1 0 0 0 -1 0 0 0 3 -14 0 0 0 0 1 0 0 0 0 0 1 0 0 0 0 0 1 0 0 0 1 0 0 1 0 0 1 0 0 0 1 0 0 0 1 0 0 0 1 0 0 0 1 0 0 0 1 0 1 0 0 0 1 0 0 0 1 0 0 0 1 0 1 0 0 0zm29 14l-29 0 0 -14 29 0 7 7 -7 7zm0 -14l7 0 0 7 -7 -7zm-8 36l0 -29 15 0 0 29 -7 7 -8 -7zm15 0l0 7 -7 0 7 -7z"/>
    </g>
    <g>
     <path id="2" class="fil1" d="M1300 282l23 0 0 14 -23 0 0 0 0 -14zm-96 -25l11 -10 0 0 2 3 2 2 2 2 2 2 2 1 3 2 2 2 2 2 2 1 3 2 2 1 3 2 2 1 3 1 2 1 3 1 3 1 2 1 3 1 3 1 3 1 3 1 3 0 3 1 3 0 3 1 3 0 3 1 3 0 4 0 3 0 3 0 0 14 -3 0 -4 0 -4 0 -3 0 -4 0 -3 -1 -4 0 -3 -1 -3 -1 -4 0 -3 -1 -3 -1 -3 -1 -3 -1 -3 -1 -3 -1 -3 -2 -3 -1 -3 -1 -3 -2 -3 -1 -3 -2 -2 -2 -3 -2 -3 -2 -2 -2 -3 -2 -2 -2 -3 -2 -2 -2 -2 -3 -3 -2 0 0zm-32 -84l14 0 0 0 0 3 0 3 0 2 1 3 0 3 0 2 1 3 0 2 0 3 1 2 1 3 0 2 1 2 1 3 0 2 1 2 1 3 1 2 1 2 1 2 1 3 2 2 1 2 1 2 2 2 1 2 2 2 1 2 2 2 1 2 2 2 2 2 -11 10 -2 -2 -2 -2 -1 -3 -2 -2 -2 -2 -2 -3 -1 -2 -2 -2 -1 -3 -2 -2 -1 -3 -1 -2 -2 -3 -1 -2 -1 -3 -1 -2 -1 -3 -1 -3 -1 -2 -1 -3 0 -3 -1 -3 -1 -2 0 -3 -1 -3 0 -3 0 -3 -1 -3 0 -3 0 -3 0 -3 0 -3 0 0zm32 -83l10 10 0 0 -1 2 -2 2 -2 2 -1 2 -2 2 -1 2 -2 2 -1 2 -1 2 -1 2 -2 2 -1 3 -1 2 -1 2 -1 2 -1 3 -1 2 0 2 -1 2 -1 3 0 2 -1 3 -1 2 0 3 0 2 -1 3 0 2 0 3 -1 2 0 3 0 3 0 2 -14 0 0 -3 0 -3 0 -2 0 -3 1 -3 0 -3 0 -3 1 -3 0 -3 1 -2 1 -3 0 -3 1 -3 1 -2 1 -3 1 -3 1 -2 1 -3 1 -2 1 -3 2 -2 1 -3 1 -2 2 -3 1 -2 2 -2 2 -3 1 -2 2 -2 2 -3 2 -2 2 -2 0 0zm97 -40l0 15 0 0 -4 0 -3 0 -3 0 -4 0 -3 1 -3 0 -3 0 -3 1 -3 1 -3 0 -3 1 -3 1 -3 1 -3 0 -2 1 -3 2 -3 1 -2 1 -3 1 -2 1 -3 2 -2 1 -3 2 -2 1 -2 2 -3 2 -2 2 -2 2 -2 1 -2 3 -2 2 -3 2 -10 -10 2 -2 3 -3 2 -2 2 -2 3 -2 2 -2 3 -2 3 -2 2 -2 3 -2 3 -2 3 -1 3 -2 2 -1 3 -1 3 -2 4 -1 3 -1 3 -1 3 -1 3 -1 4 -1 3 -1 3 0 4 -1 3 0 4 -1 3 0 4 0 4 0 3 -1 4 0 0 0zm22 15l-22 0 0 -15 22 0 8 8 -8 7zm0 -15l8 0 0 8 -8 -8zm-7 37l0 -29 15 0 0 29 -8 7 -7 -7zm15 0l0 7 -8 0 8 -7zm-27 -8l19 0 0 15 -19 0 0 0 0 -15zm-57 32l-9 -12 0 0 2 -1 2 -1 1 -1 2 -1 2 -1 2 -1 2 -1 2 -1 1 -1 2 -1 2 -1 2 -1 2 -1 2 0 2 -1 2 -1 2 0 3 -1 2 0 2 -1 2 0 2 -1 2 0 3 0 2 -1 2 0 2 0 3 0 2 0 2 0 3 0 2 -1 0 15 -2 0 -2 0 -2 0 -2 0 -3 0 -2 0 -2 1 -2 0 -1 0 -2 1 -2 0 -2 0 -2 1 -2 0 -2 1 -1 0 -2 1 -2 0 -2 1 -1 1 -2 0 -2 1 -1 1 -2 1 -2 0 -1 1 -2 1 -1 1 -2 1 -2 1 -1 1 -1 1 0 0zm-35 37l0 14 -8 -8 1 -2 0 -3 1 -2 0 -2 1 -2 0 -2 1 -1 1 -2 0 -2 1 -2 1 -2 1 -2 1 -2 1 -1 1 -2 1 -2 1 -2 1 -1 1 -2 1 -1 2 -2 1 -2 1 -1 2 -2 1 -1 1 -2 2 -1 2 -1 1 -2 2 -1 1 -1 2 -2 9 12 -2 1 -1 1 -2 1 -1 1 -1 2 -2 1 -1 1 -1 1 -1 1 -1 2 -1 1 -1 1 -1 2 -1 1 -1 1 -1 2 -1 1 -1 1 0 2 -1 1 -1 2 -1 1 0 2 -1 2 0 1 -1 2 0 1 -1 2 0 2 -1 2 0 1 0 2 -7 -8zm0 14l-9 0 1 -8 8 8zm111 0l-111 0 0 -14 111 0 8 7 -8 7zm0 -14l8 0 0 7 -8 -7zm-7 36l0 -29 15 0 0 29 -8 7 -7 -7zm15 0l0 7 -8 0 8 -7zm-119 -7l111 0 0 14 -111 0 -8 -6 8 -8zm-8 8l0 -8 8 0 -8 8zm39 48l-9 11 0 0 -2 -2 -1 -1 -2 -2 -1 -1 -2 -2 -1 -1 -1 -2 -2 -1 -1 -2 -1 -2 -1 -2 -1 -1 -1 -2 -2 -2 -1 -2 0 -2 -1 -1 -1 -2 -1 -2 -1 -2 -1 -2 0 -2 -1 -2 0 -2 -1 -2 -1 -2 0 -2 0 -3 -1 -2 0 -2 0 -2 -1 -2 15 -2 0 2 0 2 0 2 1 2 0 2 0 1 1 2 0 2 1 2 0 1 1 2 1 2 0 1 1 2 1 1 0 2 1 2 1 1 1 2 1 1 1 2 1 1 1 1 1 2 1 1 1 2 1 1 1 1 2 2 1 1 1 1 1 1 0 0zm56 20l0 14 0 0 -3 0 -2 0 -2 0 -3 0 -2 0 -2 0 -3 -1 -2 0 -2 -1 -2 0 -2 0 -3 -1 -2 0 -2 -1 -2 -1 -2 0 -2 -1 -2 -1 -2 -1 -2 -1 -2 -1 -2 -1 -1 -1 -2 -1 -2 -1 -2 -1 -2 -1 -1 -2 -2 -1 -2 -1 -2 -2 -1 -1 9 -11 2 2 1 1 2 1 1 1 2 1 1 1 2 1 1 1 2 1 1 1 2 0 1 1 2 1 2 1 1 0 2 1 2 1 1 0 2 1 2 0 2 1 2 0 2 0 1 1 2 0 2 0 2 0 2 1 2 0 2 0 2 0 3 0 0 0zm24 14l-24 0 0 -14 24 0 8 7 -8 7zm0 -14l8 0 0 7 -8 -7zm-7 36l0 -29 15 0 0 29 -8 7 -7 -7zm15 0l0 7 -8 0 8 -7z"/>
    </g>
    <g>
     <path id="3" class="fil1" d="M1484 282l21 0 0 14 -21 0 0 0 0 -14zm-57 6l5 -14 0 0 1 1 1 0 1 1 2 0 1 1 2 0 1 0 1 1 2 0 1 0 2 1 1 0 2 0 1 1 2 0 2 0 1 0 2 1 2 0 1 0 2 0 2 0 2 0 1 1 2 0 2 0 2 0 2 0 2 0 2 0 2 0 2 0 0 14 -2 0 -2 0 -3 0 -2 0 -2 0 -2 0 -2 0 -2 0 -1 0 -2 0 -2 -1 -2 0 -2 0 -2 0 -2 0 -1 -1 -2 0 -2 0 -2 -1 -1 0 -2 0 -2 -1 -1 0 -2 0 -2 -1 -1 0 -2 -1 -1 0 -2 -1 -1 0 -2 -1 -1 0 0 0zm-57 -49l12 -7 0 0 1 2 1 1 2 2 1 2 1 2 1 2 2 1 1 2 1 2 2 1 1 2 2 1 1 2 2 1 1 2 2 1 1 1 2 1 1 2 2 1 2 1 1 1 2 1 2 1 2 1 1 1 2 1 2 1 2 1 2 1 2 1 2 0 -5 14 -3 -1 -2 -1 -2 -1 -2 -1 -2 -1 -2 -1 -2 -1 -2 -1 -2 -2 -2 -1 -2 -1 -2 -1 -2 -2 -2 -1 -2 -2 -2 -1 -1 -2 -2 -1 -2 -2 -2 -2 -1 -1 -2 -2 -1 -2 -2 -2 -2 -2 -1 -2 -1 -2 -2 -2 -1 -2 -2 -2 -1 -2 -1 -2 0 0zm-13 -31l14 -4 0 0 0 1 0 1 0 1 1 1 0 1 0 1 0 1 1 1 0 0 0 1 1 1 0 1 0 1 1 1 0 1 0 1 1 0 0 1 0 1 1 1 0 1 1 1 0 1 0 0 1 1 0 1 1 1 0 1 1 0 0 1 0 1 1 1 -12 7 -1 -1 0 -1 -1 -1 0 -1 -1 -1 0 0 -1 -1 0 -1 -1 -1 0 -1 -1 -1 0 -1 -1 -1 0 -1 0 -1 -1 -1 0 -1 -1 -1 0 -1 0 -1 -1 -1 0 -1 0 -1 -1 -1 0 -1 -1 -1 0 -1 0 -1 0 -1 -1 -1 0 -1 0 -1 0 0zm-5 -35l15 0 0 0 0 1 0 1 0 1 0 1 0 1 0 1 0 1 0 1 0 1 0 1 0 1 0 1 0 1 0 1 1 1 0 1 0 1 0 1 0 1 0 1 0 1 1 0 0 1 0 1 0 1 0 1 0 1 1 1 0 1 0 1 0 1 1 1 -14 4 -1 -1 0 -2 0 -1 0 -1 -1 -1 0 -1 0 -1 0 -1 0 -1 -1 -1 0 -1 0 -1 0 -1 0 -1 0 -1 -1 -1 0 -2 0 -1 0 -1 0 -1 0 -1 0 -1 0 -1 0 -1 0 -1 0 -1 -1 -1 0 -1 0 -1 0 -1 0 -2 0 -1 0 0zm18 -63l12 7 0 0 -1 2 0 1 -1 2 -1 2 -1 1 -1 2 -1 1 0 2 -1 2 -1 1 -1 2 0 2 -1 1 0 2 -1 2 0 2 -1 1 0 2 -1 2 0 2 0 2 -1 1 0 2 0 2 -1 2 0 2 0 2 0 2 0 2 0 1 0 2 0 2 -15 0 0 -2 0 -2 1 -2 0 -2 0 -2 0 -3 0 -2 0 -2 1 -2 0 -2 0 -2 1 -2 0 -2 1 -2 0 -2 1 -2 0 -2 1 -2 1 -2 0 -2 1 -2 1 -2 1 -2 0 -2 1 -2 1 -2 1 -1 1 -2 1 -2 1 -2 1 -2 1 -1 0 0zm40 -39l7 12 0 0 -1 1 -1 1 -2 1 -1 1 -1 1 -2 1 -1 1 -1 1 -1 1 -2 1 -1 1 -1 1 -1 1 -1 1 -1 1 -1 1 -1 1 -2 1 -1 1 -1 1 -1 1 -1 1 -1 1 -1 2 0 1 -1 1 -1 1 -1 1 -1 2 -1 1 -1 1 -1 1 -12 -7 1 -2 1 -1 1 -2 1 -1 1 -1 1 -2 1 -1 1 -1 1 -2 2 -1 1 -1 1 -2 1 -1 1 -1 1 -1 2 -2 1 -1 1 -1 1 -1 2 -1 1 -1 1 -2 2 -1 1 -1 1 -1 2 -1 1 -1 2 -1 1 -1 2 -1 1 -1 2 -1 0 0zm36 -15l4 13 0 0 -1 1 -1 0 -1 0 -1 1 -2 0 -1 0 -1 1 -1 0 -1 0 -1 1 -1 0 -1 1 -1 0 -1 0 -1 1 -1 0 -1 1 -1 0 -1 1 -1 0 -1 1 -1 0 -1 1 -1 0 -1 1 -1 0 -1 1 -1 0 -1 1 -1 0 -1 1 -1 0 -7 -12 1 0 1 -1 1 -1 1 0 1 -1 1 0 1 -1 1 -1 1 0 1 -1 1 0 2 -1 1 0 1 -1 1 0 1 -1 1 0 1 -1 2 0 1 -1 1 0 1 -1 1 0 2 0 1 -1 1 0 1 -1 1 0 2 0 1 -1 1 0 1 0 0 0zm41 -6l0 15 0 0 -1 0 -1 0 -1 0 -1 0 -2 0 -1 0 -1 0 -1 0 -1 0 -1 0 -2 0 -1 0 -1 0 -1 1 -1 0 -1 0 -2 0 -1 0 -1 0 -1 1 -1 0 -1 0 -2 0 -1 0 -1 1 -1 0 -1 0 -1 0 -2 1 -1 0 -1 0 -1 0 -4 -13 2 -1 1 0 1 0 1 -1 2 0 1 0 1 0 2 -1 1 0 1 0 1 0 2 -1 1 0 1 0 1 0 2 0 1 0 1 -1 2 0 1 0 1 0 1 0 2 0 1 0 1 0 2 0 1 -1 1 0 1 0 2 0 1 0 1 0 0 0zm18 15l-18 0 0 -15 18 0 7 8 -7 7zm0 -15l7 0 0 8 -7 -8zm-7 37l0 -29 14 0 0 29 -7 7 -7 -7zm14 0l0 7 -7 0 7 -7zm-29 -8l22 0 0 15 -22 0 0 0 0 -15zm-48 28l-7 -12 0 0 1 -1 2 -1 1 -1 2 0 1 -1 2 -1 2 -1 1 -1 2 0 2 -1 1 -1 2 0 2 -1 1 -1 2 0 2 -1 2 0 1 -1 2 0 2 0 2 -1 2 0 1 0 2 -1 2 0 2 0 2 0 2 0 2 0 1 0 2 0 2 -1 0 15 -1 0 -2 0 -2 0 -1 0 -2 0 -2 0 -1 0 -2 1 -1 0 -2 0 -2 0 -1 1 -2 0 -1 0 -2 1 -1 0 -2 1 -1 0 -2 1 -1 0 -2 1 -1 0 -1 1 -2 0 -1 1 -2 1 -1 0 -1 1 -2 1 -1 1 -1 0 -2 1 0 0zm-27 29l-12 -7 0 0 0 -1 1 -2 1 -1 1 -1 0 -1 1 -1 1 -2 1 -1 1 -1 1 -1 0 -1 1 -1 1 -2 1 -1 1 -1 1 -1 1 -1 1 -1 1 -1 1 -1 1 -1 2 -1 1 -1 1 -1 1 -1 1 -1 1 -1 2 0 1 -1 1 -1 1 -1 2 -1 7 12 -1 1 -1 1 -1 0 -1 1 -1 1 -1 1 -1 1 -1 0 -1 1 -1 1 -1 1 -1 1 -1 0 -1 1 -1 1 0 1 -1 1 -1 1 -1 1 -1 1 0 1 -1 1 -1 1 -1 1 0 0 -1 1 -1 2 0 1 -1 1 0 1 -1 1 -1 1 0 0zm-9 37l-14 0 0 0 0 -1 0 -2 0 -1 0 -2 0 -1 0 -1 0 -2 0 -1 1 -2 0 -1 0 -2 0 -1 1 -1 0 -2 0 -1 1 -2 0 -1 0 -1 1 -2 0 -1 1 -2 0 -1 0 -1 1 -2 0 -1 1 -1 1 -2 0 -1 1 -1 0 -1 1 -2 1 -1 12 7 0 1 -1 1 0 1 -1 1 0 1 -1 1 0 1 -1 2 0 1 0 1 -1 1 0 1 -1 1 0 1 0 2 -1 1 0 1 0 1 0 1 -1 2 0 1 0 1 0 1 0 1 0 2 -1 1 0 1 0 1 0 2 0 1 0 1 0 1 0 0zm3 26l-13 3 0 0 -1 0 0 -1 0 -1 0 -1 -1 -1 0 -1 0 -1 0 -1 0 0 0 -1 -1 -1 0 -1 0 -1 0 -1 0 -1 0 -1 0 -1 0 -1 -1 -1 0 0 0 -1 0 -1 0 -1 0 -1 0 -1 0 -1 0 -1 0 -1 0 -1 0 -1 0 -1 0 -1 14 0 0 1 0 1 0 1 0 1 0 1 0 0 0 1 0 1 0 1 0 1 1 0 0 1 0 1 0 1 0 1 0 0 0 1 0 1 0 1 0 1 1 0 0 1 0 1 0 1 0 0 0 1 0 1 1 1 0 0 0 1 0 1 0 1 0 0zm10 22l-11 8 0 0 -1 -1 0 -1 -1 -1 0 0 -1 -1 0 -1 -1 -1 0 0 -1 -1 0 -1 -1 -1 0 -1 0 -1 -1 0 0 -1 -1 -1 0 -1 0 -1 -1 0 0 -1 0 -1 -1 -1 0 -1 0 -1 -1 0 0 -1 0 -1 0 -1 -1 -1 0 -1 0 -1 0 -1 13 -3 1 0 0 1 0 1 0 1 0 0 1 1 0 1 0 0 0 1 1 1 0 1 0 0 1 1 0 1 0 0 0 1 1 1 0 0 0 1 1 1 0 0 0 1 1 1 0 0 1 1 0 1 0 0 1 1 0 1 1 0 0 1 0 1 0 0zm33 27l-5 13 0 0 -1 -1 -2 0 -1 -1 -2 -1 -1 0 -2 -1 -1 -1 -1 -1 -2 0 -1 -1 -1 -1 -2 -1 -1 -1 -1 -1 -2 -1 -1 -1 -1 -1 -1 -1 -1 -1 -2 -1 -1 -1 -1 -1 -1 -1 -1 -2 -1 -1 -1 -1 -1 -1 -1 -2 -1 -1 -1 -1 -1 -2 -1 -1 11 -8 1 1 1 1 1 1 1 1 1 2 1 1 1 1 0 1 1 1 1 1 1 1 1 1 1 1 1 0 1 1 1 1 1 1 1 1 1 1 1 0 1 1 2 1 1 0 1 1 1 1 1 0 1 1 1 0 2 1 1 1 1 0 1 0 0 1zm35 5l0 14 0 0 -2 0 -1 0 -1 0 -2 0 -1 0 -2 0 -1 0 -1 0 -2 0 -1 0 -1 0 -1 -1 -2 0 -1 0 -1 0 -1 0 -2 0 -1 -1 -1 0 -1 0 -2 0 -1 -1 -1 0 -1 0 -1 -1 -1 0 -1 0 -2 -1 -1 0 -1 0 -1 -1 -1 0 5 -13 1 0 1 0 1 0 1 1 1 0 1 0 1 1 1 0 1 0 1 0 1 1 1 0 1 0 1 0 1 0 1 1 1 0 1 0 1 0 1 0 1 0 2 0 1 1 1 0 1 0 1 0 1 0 2 0 1 0 1 0 1 0 2 0 0 0zm25 14l-25 0 0 -14 25 0 7 7 -7 7zm0 -14l7 0 0 7 -7 -7zm-7 36l0 -29 14 0 0 29 -7 7 -7 -7zm14 0l0 7 -7 0 7 -7z"/>
    </g>
    <g>
     <path id="4" class="fil1" d="M1615 79l57 0 0 15 -57 0 -7 -7 7 -8zm-7 8l0 -8 7 0 -7 8zm0 202l0 -202 14 0 0 202 -7 7 -7 -7zm14 0l0 7 -7 0 7 -7zm-38 -7l31 0 0 14 -31 0 -7 -7 7 -7zm0 14l-7 0 0 -7 7 7zm7 -209l0 202 -14 0 0 -202 7 -8 7 8zm-7 -8l7 0 0 8 -7 -8zm-57 0l57 0 0 15 -57 0 -7 -7 7 -8zm0 15l-7 0 0 -7 7 7zm7 -36l0 29 -14 0 0 -29 7 -8 7 8zm-14 0l0 -8 7 0 -7 8zm152 7l-145 0 0 -15 145 0 8 8 -8 7zm0 -15l8 0 0 8 -8 -8zm-7 37l0 -29 15 0 0 29 -8 7 -7 -7zm15 0l0 7 -8 0 8 -7z"/>
    </g>
    <g>
     <path id="5" class="fil1" d="M1826 282l31 0 0 14 -31 0 -7 -7 7 -7zm0 14l-7 0 0 -7 7 7zm7 -68l0 61 -14 0 0 -61 0 0 14 0zm-26 -28l8 -12 0 0 1 1 1 1 1 0 1 1 1 1 1 1 1 1 1 1 1 1 1 1 0 1 1 2 1 1 1 1 0 1 1 1 0 2 1 1 0 1 1 2 0 1 0 2 1 1 0 1 0 2 0 1 0 2 1 2 0 1 0 2 0 1 0 2 -14 0 0 -1 0 -2 -1 -1 0 -1 0 -2 0 -1 0 -1 0 -1 0 -1 -1 -1 0 -1 0 -1 0 -1 -1 -1 0 -1 -1 -1 0 -1 0 -1 -1 0 0 -1 -1 -1 0 0 -1 -1 0 -1 -1 0 0 -1 -1 -1 0 0 -1 -1 0 0 -1 -1 -1 0 0 0zm-21 -5l0 -14 0 0 1 0 1 0 1 0 1 0 1 0 1 0 1 0 1 0 1 0 1 0 1 1 1 0 1 0 1 0 1 0 1 0 1 1 1 0 1 0 0 0 1 1 1 0 1 0 1 1 1 0 0 0 1 1 1 0 1 1 1 0 0 0 1 1 -8 12 0 0 -1 -1 0 0 -1 0 0 0 -1 -1 0 0 -1 0 0 0 -1 0 0 -1 -1 0 -1 0 0 0 -1 0 0 -1 -1 0 -1 0 0 0 -1 0 -1 0 -1 0 0 0 -1 -1 -1 0 -1 0 -1 0 0 0 -1 0 -1 0 -1 0 -1 0 0 0zm-38 -14l38 0 0 14 -38 0 -8 -7 8 -7zm0 14l-8 0 0 -7 8 7zm7 -36l0 29 -15 0 0 -29 8 -7 7 7zm-15 0l0 -7 8 0 -8 7zm34 7l-26 0 0 -14 26 0 0 0 0 14zm33 -25l9 11 0 0 0 1 -1 0 -1 1 -2 1 -1 1 -1 1 -1 0 -1 1 -1 1 -1 0 -2 1 -1 1 -1 0 -1 1 -2 0 -1 1 -1 0 -2 0 -1 1 -2 0 -1 0 -1 1 -2 0 -1 0 -2 0 -2 1 -1 0 -2 0 -1 0 -2 0 -2 0 -1 0 0 -14 1 0 2 0 1 0 1 -1 2 0 1 0 1 0 2 0 1 0 1 0 1 -1 1 0 1 0 1 0 2 -1 1 0 1 0 1 -1 0 0 1 0 1 -1 1 0 1 -1 1 0 1 -1 0 0 1 -1 1 0 1 -1 0 0 1 -1 0 -1 1 0zm8 -20l14 0 0 0 0 1 0 1 0 1 0 2 0 1 -1 1 0 1 0 1 0 1 0 1 -1 1 0 1 0 1 0 1 -1 1 0 1 -1 1 0 1 0 1 -1 1 0 1 -1 1 -1 0 0 1 -1 1 0 1 -1 1 -1 1 0 0 -1 1 -1 1 -1 1 -9 -11 0 0 1 -1 0 0 0 -1 1 0 0 -1 1 0 0 -1 0 0 1 -1 0 0 0 -1 1 -1 0 0 0 -1 1 0 0 -1 0 -1 0 0 0 -1 1 -1 0 0 0 -1 0 -1 0 0 0 -1 0 -1 0 -1 1 0 0 -1 0 -1 0 -1 0 0zm-6 -19l11 -9 0 0 0 1 1 1 0 0 1 1 0 1 1 1 0 0 1 1 0 1 1 1 0 1 0 1 1 0 0 1 0 1 1 1 0 1 0 1 0 1 1 1 0 1 0 0 0 1 0 1 0 1 1 1 0 1 0 1 0 1 0 1 0 1 0 1 -14 0 0 -1 0 0 0 -1 -1 -1 0 -1 0 0 0 -1 0 -1 0 0 0 -1 0 0 0 -1 0 -1 -1 0 0 -1 0 -1 0 0 0 -1 -1 0 0 -1 0 0 0 -1 -1 0 0 -1 0 0 0 -1 -1 -1 0 0 0 0 -1 -1 0 0 0 -1 0 0zm-12 -8l6 -14 0 0 1 1 0 0 1 0 1 1 0 0 1 0 0 1 1 0 0 0 1 1 1 0 0 0 1 1 0 0 1 0 0 1 1 0 0 1 1 0 0 0 1 1 0 0 1 1 0 0 1 1 0 0 1 1 0 0 0 1 1 0 0 1 1 0 -11 9 -1 0 0 -1 0 0 -1 0 0 -1 0 0 -1 0 0 -1 0 0 0 0 -1 0 0 -1 0 0 -1 0 0 -1 0 0 -1 0 0 0 -1 -1 0 0 0 0 -1 0 0 -1 0 0 -1 0 0 0 -1 0 0 -1 0 0 -1 0 0 0 -1 0 0 0zm-16 -3l0 -15 0 0 1 0 1 0 1 0 0 0 1 0 1 0 0 0 1 0 1 1 1 0 0 0 1 0 1 0 0 0 1 0 1 0 0 0 1 1 1 0 0 0 1 0 1 0 0 0 1 1 1 0 0 0 1 0 1 0 0 1 1 0 0 0 1 0 -6 14 0 -1 -1 0 0 0 0 0 -1 0 0 0 -1 -1 0 0 -1 0 0 0 -1 0 0 0 -1 0 0 -1 0 0 -1 0 0 0 -1 0 0 0 -1 0 -1 0 0 0 -1 0 0 0 -1 0 0 0 -1 0 0 0 -1 0 0 0 -1 0 -1 0 0 0zm-10 0l-3 -14 0 0 1 0 0 0 0 0 1 0 0 0 0 0 1 0 0 0 0 0 1 0 0 -1 0 0 1 0 0 0 1 0 0 0 0 0 1 0 0 0 1 0 0 0 0 0 1 0 0 0 1 0 0 0 1 0 0 0 1 0 0 0 1 0 0 0 0 15 0 0 -1 0 0 0 -1 0 0 0 0 0 -1 0 0 0 -1 0 0 0 0 0 -1 0 0 0 -1 0 0 0 0 0 -1 0 0 0 0 0 0 0 -1 0 0 0 0 0 0 0 -1 0 0 0 0 0 0 0 0 0 0 0 -1 0 0 0 0 0zm-7 3l-5 -13 -1 0 1 0 0 0 0 -1 1 0 0 0 0 0 1 0 0 0 0 -1 1 0 0 0 0 0 1 0 0 0 0 0 1 0 0 -1 0 0 1 0 0 0 0 0 0 0 1 0 0 0 0 0 1 -1 0 0 0 0 1 0 0 0 0 0 0 0 3 14 0 0 0 0 0 0 0 0 0 0 0 0 0 0 -1 0 0 0 0 0 0 0 0 1 -1 0 0 0 0 0 0 0 0 0 -1 0 0 0 0 0 0 0 -1 0 0 1 0 0 0 0 -1 0 0 0 0 0 0 0 -1 0 0 1 0 0 -1 0zm-18 21l-14 -4 0 0 1 -2 0 -1 0 -1 1 -1 0 -1 1 -2 1 -1 0 -1 1 -1 1 -1 0 -1 1 -1 1 -1 0 -1 1 -1 1 -1 1 -1 1 -1 1 -1 1 -1 1 -1 1 0 1 -1 1 -1 1 -1 1 0 1 -1 1 -1 1 0 1 -1 1 -1 2 0 5 13 0 0 -1 1 -1 0 -1 1 -1 0 -1 1 0 0 -1 1 -1 0 0 1 -1 0 -1 1 0 0 -1 1 -1 1 0 0 -1 1 0 1 -1 0 0 1 -1 1 0 0 -1 1 0 1 -1 1 0 1 0 0 -1 1 0 1 -1 1 0 1 0 1 0 0zm-3 28l-14 0 0 0 0 -1 0 -1 0 -2 0 -1 0 -1 0 -1 0 -1 0 -2 0 -1 0 -1 0 -1 0 -1 0 -1 0 -1 0 -1 0 -1 0 -1 1 -1 0 -1 0 -1 0 -1 0 -1 0 -1 0 -1 1 -1 0 -1 0 0 0 -1 0 -1 1 -1 0 -1 0 0 14 4 0 1 -1 0 0 1 0 0 0 1 0 1 0 0 0 1 -1 1 0 0 0 1 0 1 0 1 0 1 0 0 0 1 0 1 -1 1 0 1 0 1 0 1 0 1 0 1 0 1 0 1 0 1 0 1 0 2 0 1 0 1 0 1 0 1 0 0zm-14 146l0 -146 14 0 0 146 -7 7 -7 -7zm14 0l0 7 -7 0 7 -7zm-38 -7l31 0 0 14 -31 0 -8 -7 8 -7zm0 14l-8 0 0 -7 8 7zm7 -153l0 146 -15 0 0 -146 0 0 15 0zm-9 -43l13 4 0 0 0 1 0 1 0 1 -1 1 0 1 0 1 0 1 -1 1 0 1 0 1 0 1 0 1 -1 1 0 1 0 1 0 1 0 2 0 1 -1 1 0 1 0 2 0 1 0 1 0 2 0 1 0 2 0 1 0 2 0 1 0 2 0 1 0 2 -15 0 0 -2 0 -2 0 -1 0 -2 1 -1 0 -2 0 -1 0 -2 0 -1 0 -2 0 -1 0 -2 0 -1 0 -2 1 -1 0 -1 0 -2 0 -1 0 -1 0 -2 1 -1 0 -1 0 -1 0 -1 1 -2 0 -1 0 -1 0 -1 1 -1 0 -1 0 -1 1 -1 0 0zm33 -42l7 13 0 0 -1 0 -1 1 -1 1 -1 1 -2 1 -1 1 -1 0 -1 1 -1 1 -1 1 -1 1 -1 1 -1 1 -1 1 -1 1 0 1 -1 1 -1 1 -1 1 -1 1 0 2 -1 1 -1 1 0 1 -1 1 -1 1 0 2 -1 1 0 1 -1 1 0 2 -1 1 -13 -4 0 -2 1 -2 0 -1 1 -2 1 -1 1 -2 0 -1 1 -2 1 -1 1 -2 1 -1 1 -2 0 -1 1 -1 1 -2 1 -1 2 -1 1 -1 1 -2 1 -1 1 -1 1 -1 1 -1 2 -2 1 -1 1 -1 2 -1 1 -1 2 -1 1 -1 1 -1 2 -1 0 0zm21 -8l4 14 0 0 -1 0 -1 0 0 0 -1 0 0 0 -1 1 -1 0 0 0 -1 0 0 0 -1 1 0 0 -1 0 0 0 -1 0 -1 1 0 0 -1 0 0 0 -1 0 0 1 -1 0 0 0 -1 0 0 1 -1 0 0 0 -1 0 0 1 -1 0 0 0 -1 1 -7 -13 0 0 1 0 1 -1 0 0 1 0 1 -1 0 0 1 0 1 -1 0 0 1 0 0 -1 1 0 1 0 0 0 1 -1 1 0 0 0 1 -1 1 0 1 0 0 0 1 -1 1 0 0 0 1 0 1 0 1 -1 0 0 1 0 1 0 0 0 0 0zm24 -3l0 14 0 0 0 0 -1 0 -1 0 0 0 -1 0 -1 0 0 0 -1 1 -1 0 0 0 -1 0 -1 0 0 0 -1 0 -1 0 0 0 -1 0 -1 0 0 0 -1 0 0 0 -1 0 -1 1 0 0 -1 0 -1 0 0 0 -1 0 -1 0 0 0 -1 1 0 0 -4 -14 1 0 1 -1 1 0 0 0 1 0 1 0 1 0 0 0 1 -1 1 0 0 0 1 0 1 0 1 0 0 0 1 0 1 0 1 0 0 -1 1 0 1 0 1 0 0 0 1 0 1 0 1 0 1 0 0 0 1 0 1 0 1 0 0 0 0 0zm43 11l-7 12 0 0 -1 0 -1 -1 -1 0 -1 -1 -1 0 -1 -1 -1 0 -1 -1 -1 0 -2 0 -1 -1 -1 0 -1 0 -1 -1 -1 0 -1 0 -1 -1 -1 0 -1 0 -2 0 -1 -1 -1 0 -1 0 -1 0 -1 0 -1 0 -2 0 -1 0 -1 -1 -1 0 -1 0 -2 0 0 -14 2 0 1 0 2 0 1 0 1 0 2 0 1 1 2 0 1 0 1 0 2 0 1 1 1 0 2 0 1 0 1 1 2 0 1 0 1 1 2 0 1 1 1 0 2 1 1 0 1 1 1 0 2 1 1 0 1 1 1 1 2 0 1 1 0 0zm25 22l-12 8 0 0 -1 0 0 -1 -1 -1 0 0 -1 -1 0 -1 -1 0 0 -1 -1 0 0 -1 -1 -1 -1 0 0 -1 -1 0 0 -1 -1 -1 -1 0 0 -1 -1 0 0 -1 -1 0 -1 -1 0 0 -1 -1 -1 0 -1 -1 0 0 -1 -1 -1 0 -1 -1 0 0 -1 -1 7 -12 1 0 1 1 1 1 1 0 1 1 0 0 1 1 1 1 1 0 1 1 1 0 1 1 0 1 1 0 1 1 1 1 1 1 0 0 1 1 1 1 0 0 1 1 1 1 1 1 0 1 1 0 1 1 0 1 1 1 0 1 1 0 1 1 0 0zm11 40l-14 0 0 0 0 -1 0 -1 0 -1 0 -1 -1 -2 0 -1 0 -1 0 -1 0 -1 0 -1 0 -1 -1 -1 0 -1 0 -1 0 -1 -1 -1 0 -1 0 -1 -1 -1 0 -1 0 -1 -1 -1 0 -1 0 -1 -1 -1 0 0 -1 -1 0 -1 -1 -1 0 -1 -1 -1 0 -1 12 -8 0 1 1 1 1 2 0 1 1 1 0 1 1 1 1 1 0 1 1 2 0 1 1 1 0 1 0 1 1 2 0 1 1 1 0 1 0 2 0 1 1 1 0 2 0 1 0 1 1 2 0 1 0 1 0 2 0 1 0 1 0 2 0 1 0 0zm-4 26l-14 -5 0 0 1 -1 0 0 0 -1 0 0 0 -1 1 -1 0 0 0 -1 0 0 0 -1 0 -1 0 0 1 -1 0 0 0 -1 0 -1 0 0 0 -1 0 -1 0 0 0 -1 0 -1 0 0 1 -1 0 -1 0 -1 0 0 0 -1 0 -1 0 0 0 -1 0 -1 14 0 0 1 0 1 0 1 0 1 0 0 0 1 0 1 0 1 0 1 0 1 0 0 -1 1 0 1 0 1 0 1 0 0 0 1 0 1 0 1 -1 1 0 0 0 1 0 1 0 1 0 0 -1 1 0 1 0 1 0 0 -1 1 0 1 0 1 0 0zm-27 18l-5 14 -2 -13 1 -1 1 0 1 -1 1 0 1 -1 1 -1 0 0 1 -1 1 -1 1 0 0 -1 1 -1 1 0 1 -1 0 -1 1 0 0 -1 1 -1 1 -1 0 0 1 -1 0 -1 1 -1 0 -1 1 -1 0 -1 1 0 0 -1 0 -1 1 -1 0 -1 0 -1 14 5 0 1 -1 1 0 1 -1 2 -1 1 0 1 -1 1 0 1 -1 1 -1 1 0 2 -1 1 -1 1 -1 1 0 1 -1 1 -1 1 -1 1 -1 1 -1 1 -1 0 -1 1 -1 1 -1 1 -1 1 -1 1 -1 1 -1 0 -1 1 -1 1 -1 1 -1 0 -1 -13zm-5 14l-14 -6 12 -7 2 13zm35 14l-13 6 0 0 -1 -1 0 -1 -1 -1 0 -1 0 0 -1 -1 0 -1 -1 -1 0 0 -1 -1 -1 -1 0 0 -1 -1 0 -1 -1 0 -1 -1 0 -1 -1 0 -1 -1 -1 0 0 -1 -1 0 -1 -1 -1 -1 -1 0 -1 -1 0 0 -1 0 -1 -1 -1 0 -1 -1 -1 0 5 -14 1 1 1 0 2 1 1 1 1 0 1 1 1 0 2 1 1 1 1 1 1 0 1 1 1 1 1 1 1 1 1 0 1 1 1 1 1 1 1 1 0 1 1 1 1 1 1 1 1 1 0 1 1 1 1 1 0 2 1 1 0 1 1 1 0 0zm5 36l-14 0 0 0 0 -1 0 -2 0 -1 0 -1 0 -1 0 -1 -1 -2 0 -1 0 -1 0 -1 0 -1 0 -1 0 -1 0 -1 0 -1 0 -1 -1 -1 0 -1 0 -1 0 -1 0 -1 0 0 -1 -1 0 -1 0 -1 0 -1 0 0 -1 -1 0 -1 0 0 0 -1 0 0 13 -6 0 1 1 1 0 1 0 1 0 1 1 1 0 1 0 0 0 1 1 1 0 1 0 2 0 1 0 1 1 1 0 1 0 1 0 1 0 1 0 1 0 2 1 1 0 1 0 1 0 2 0 1 0 1 0 2 0 1 0 1 0 2 0 1 0 0zm-14 61l0 -61 14 0 0 61 -7 7 -7 -7zm14 0l0 7 -7 0 7 -7z"/>
    </g>
    <g>
     <path id="6" class="fil1" d="M2103 263l-10 -10 0 0 2 -3 2 -2 2 -2 2 -2 2 -2 2 -2 1 -3 2 -2 1 -2 2 -2 1 -3 2 -2 1 -2 1 -3 1 -2 1 -3 1 -2 1 -3 1 -2 1 -3 1 -2 1 -3 0 -3 1 -2 0 -3 1 -3 0 -2 0 -3 1 -3 0 -3 0 -3 0 -3 14 0 0 4 0 3 0 3 0 3 -1 3 0 3 -1 4 0 3 -1 3 -1 3 0 3 -1 2 -1 3 -1 3 -1 3 -1 3 -2 3 -1 2 -1 3 -2 3 -1 3 -2 2 -2 3 -1 2 -2 3 -2 2 -2 3 -2 2 -2 3 -2 2 -3 3 -2 2 0 0zm-90 37l0 -15 0 0 3 0 3 0 3 0 3 0 3 0 2 -1 3 0 3 -1 2 0 3 -1 3 0 2 -1 3 -1 2 -1 3 -1 2 -1 3 -1 2 -1 3 -1 2 -1 2 -2 3 -1 2 -1 2 -2 3 -2 2 -1 2 -2 2 -2 3 -2 2 -1 2 -2 2 -2 10 10 -2 2 -3 2 -2 2 -3 2 -2 2 -3 2 -2 2 -3 2 -2 2 -3 1 -3 2 -2 1 -3 2 -3 1 -3 1 -2 1 -3 2 -3 1 -3 1 -3 1 -3 0 -3 1 -3 1 -3 0 -3 1 -3 0 -3 1 -3 0 -3 0 -3 1 -3 0 -4 0 0 0zm-89 -37l10 -10 0 0 2 2 2 2 2 1 3 2 2 2 2 2 2 1 3 2 2 2 2 1 3 1 2 2 2 1 3 1 2 1 3 1 2 1 3 1 2 1 3 1 2 1 3 0 3 1 2 0 3 1 3 0 2 1 3 0 3 0 3 0 3 0 2 0 0 15 -3 0 -3 0 -3 -1 -3 0 -3 0 -3 -1 -3 0 -3 -1 -3 0 -3 -1 -3 -1 -3 0 -3 -1 -3 -1 -3 -1 -3 -2 -3 -1 -2 -1 -3 -1 -3 -2 -2 -1 -3 -2 -3 -1 -2 -2 -3 -2 -2 -2 -3 -2 -2 -2 -3 -2 -2 -2 -3 -2 -2 -2 0 0zm-38 -90l14 0 0 0 0 3 0 3 0 3 1 3 0 3 0 2 1 3 0 3 1 2 0 3 1 3 1 2 1 3 1 2 1 3 1 2 1 3 1 2 1 3 1 2 2 2 1 3 1 2 2 2 2 2 1 3 2 2 2 2 2 2 2 2 2 2 2 3 -10 10 -2 -2 -3 -3 -2 -2 -2 -3 -2 -2 -2 -3 -2 -2 -2 -3 -1 -2 -2 -3 -2 -2 -1 -3 -2 -3 -1 -2 -1 -3 -2 -3 -1 -3 -1 -3 -1 -3 -1 -3 -1 -2 0 -3 -1 -3 -1 -3 0 -3 -1 -4 0 -3 -1 -3 0 -3 0 -3 0 -3 0 -4 0 0zm38 -89l10 10 0 0 -2 2 -2 2 -2 3 -2 2 -2 2 -2 2 -1 2 -2 3 -2 2 -1 2 -1 2 -2 3 -1 2 -1 3 -1 2 -1 2 -1 3 -1 2 -1 3 -1 3 -1 2 -1 3 0 2 -1 3 0 3 -1 2 0 3 0 3 -1 3 0 3 0 3 0 2 -14 0 0 -3 0 -3 0 -3 0 -3 1 -4 0 -3 1 -3 0 -3 1 -3 1 -3 0 -3 1 -3 1 -3 1 -2 1 -3 1 -3 2 -3 1 -3 1 -2 2 -3 1 -3 2 -2 2 -3 1 -3 2 -2 2 -3 2 -2 2 -3 2 -2 2 -2 3 -3 2 -2 0 0zm89 -37l0 14 0 0 -2 0 -3 1 -3 0 -3 0 -3 0 -2 1 -3 0 -3 0 -2 1 -3 1 -3 0 -2 1 -3 1 -2 1 -3 1 -2 1 -3 1 -2 1 -3 1 -2 1 -2 1 -3 2 -2 1 -2 2 -3 1 -2 2 -2 2 -2 2 -3 1 -2 2 -2 2 -2 2 -10 -10 2 -2 3 -2 2 -3 3 -2 2 -2 3 -1 2 -2 3 -2 2 -2 3 -1 3 -2 2 -1 3 -2 3 -1 2 -1 3 -2 3 -1 3 -1 3 -1 3 -1 3 -1 3 0 3 -1 3 -1 3 0 3 -1 3 0 3 0 3 -1 3 0 3 0 3 0 0 0zm90 37l-10 10 0 0 -2 -2 -2 -2 -2 -2 -3 -1 -2 -2 -2 -2 -2 -2 -3 -1 -2 -2 -2 -1 -3 -2 -2 -1 -2 -1 -3 -1 -2 -1 -3 -1 -2 -1 -3 -1 -2 -1 -3 -1 -2 -1 -3 0 -3 -1 -2 -1 -3 0 -3 0 -2 -1 -3 0 -3 0 -3 0 -3 -1 -3 0 0 -14 4 0 3 0 3 0 3 1 3 0 3 0 3 1 3 0 3 1 3 1 3 0 3 1 3 1 3 1 3 1 3 1 2 2 3 1 3 1 3 2 2 1 3 2 3 1 2 2 3 2 2 2 3 1 2 2 3 2 2 3 3 2 2 2 0 0zm38 89l-14 0 0 0 0 -2 0 -3 0 -3 -1 -3 0 -3 0 -3 -1 -2 0 -3 -1 -3 0 -2 -1 -3 -1 -2 -1 -3 -1 -3 -1 -2 -1 -3 -1 -2 -1 -2 -1 -3 -1 -2 -2 -2 -1 -3 -2 -2 -1 -2 -2 -3 -1 -2 -2 -2 -2 -2 -2 -2 -2 -3 -2 -2 -2 -2 10 -10 2 2 3 3 2 2 2 2 2 3 2 2 2 3 2 2 1 3 2 3 2 2 1 3 2 3 1 2 1 3 2 3 1 3 1 3 1 2 1 3 1 3 0 3 1 3 1 3 0 3 1 3 0 3 1 4 0 3 0 3 0 3 0 3 0 0zm-70 -58l10 -10 0 0 2 2 2 1 1 2 2 2 1 2 2 2 1 2 1 2 2 2 1 2 1 2 1 2 1 2 1 2 1 2 1 2 1 2 0 3 1 2 1 2 0 2 1 3 1 2 0 2 0 3 1 2 0 2 0 3 0 2 1 3 0 2 0 2 -15 0 0 -2 0 -2 0 -2 0 -2 0 -2 0 -2 -1 -2 0 -2 0 -2 -1 -2 0 -2 -1 -2 0 -2 -1 -2 -1 -2 0 -1 -1 -2 -1 -2 -1 -2 -1 -2 -1 -1 -1 -2 -1 -2 -1 -1 -1 -2 -1 -2 -1 -1 -1 -2 -2 -2 -1 -1 -2 -2 -1 -1 0 0zm-58 -24l0 -15 0 0 3 0 2 0 3 0 2 1 3 0 2 0 2 1 3 0 2 0 2 1 3 1 2 0 2 1 2 1 2 0 3 1 2 1 2 1 2 1 2 1 2 2 2 1 2 1 2 1 2 2 2 1 2 2 1 1 2 2 2 1 2 2 1 2 -10 10 -1 -2 -2 -1 -1 -2 -2 -1 -2 -1 -1 -2 -2 -1 -1 -1 -2 -1 -2 -1 -1 -1 -2 -1 -2 -1 -1 -1 -2 -1 -2 0 -2 -1 -2 -1 -1 0 -2 -1 -2 -1 -2 0 -2 -1 -2 0 -2 0 -2 -1 -2 0 -2 0 -2 0 -2 0 -2 0 -3 0 0 0zm-57 24l-10 -10 0 0 1 -2 2 -2 2 -1 2 -2 1 -1 2 -2 2 -1 2 -2 2 -1 2 -1 2 -1 2 -2 2 -1 2 -1 2 -1 2 -1 2 -1 3 0 2 -1 2 -1 2 0 3 -1 2 -1 2 0 2 0 3 -1 2 0 3 0 2 -1 3 0 2 0 2 0 0 15 -2 0 -2 0 -2 0 -2 0 -2 0 -2 0 -2 1 -2 0 -2 0 -2 1 -2 0 -2 1 -2 1 -2 0 -1 1 -2 1 -2 0 -2 1 -1 1 -2 1 -2 1 -1 1 -2 1 -2 1 -1 1 -2 1 -2 2 -1 1 -2 1 -1 2 -2 1 -1 2 0 0zm-23 58l-15 0 0 0 0 -2 0 -2 0 -3 1 -2 0 -3 0 -2 1 -2 0 -3 0 -2 1 -2 0 -3 1 -2 1 -2 0 -2 1 -3 1 -2 1 -2 1 -2 1 -2 1 -2 1 -2 1 -2 1 -2 2 -2 1 -2 1 -2 2 -2 1 -2 2 -2 1 -2 2 -1 2 -2 10 10 -2 1 -1 2 -1 1 -2 2 -1 2 -1 1 -1 2 -1 2 -1 1 -1 2 -1 2 -1 1 -1 2 -1 2 -1 2 -1 2 0 1 -1 2 -1 2 0 2 -1 2 0 2 -1 2 0 2 0 2 -1 2 0 2 0 2 0 2 0 2 0 2 0 2 0 0zm23 59l-10 10 0 0 -2 -2 -2 -2 -1 -1 -2 -2 -1 -2 -2 -2 -1 -2 -1 -2 -2 -2 -1 -2 -1 -2 -1 -2 -1 -2 -1 -2 -1 -2 -1 -2 -1 -3 -1 -2 0 -2 -1 -2 -1 -3 0 -2 -1 -2 0 -2 0 -3 -1 -2 0 -2 0 -3 -1 -2 0 -3 0 -2 0 -3 15 0 0 3 0 2 0 2 0 2 0 2 0 2 1 2 0 2 0 2 1 2 0 2 1 2 0 2 1 2 1 1 0 2 1 2 1 2 1 2 1 1 1 2 1 2 1 1 1 2 1 2 1 1 1 2 1 2 2 1 1 2 1 1 2 2 0 0zm57 24l0 15 0 0 -2 0 -2 0 -3 -1 -2 0 -3 0 -2 0 -3 -1 -2 0 -2 -1 -2 0 -3 -1 -2 0 -2 -1 -2 -1 -3 -1 -2 -1 -2 0 -2 -1 -2 -2 -2 -1 -2 -1 -2 -1 -2 -1 -2 -2 -2 -1 -2 -1 -2 -2 -1 -1 -2 -2 -2 -2 -2 -1 -1 -2 10 -10 1 2 2 1 1 1 2 2 1 1 2 1 2 2 1 1 2 1 2 1 1 1 2 1 2 1 1 1 2 0 2 1 2 1 1 1 2 0 2 1 2 0 2 1 2 0 2 1 2 0 2 0 2 1 2 0 2 0 2 0 2 0 2 0 0 0zm58 -24l10 10 0 0 -1 2 -2 1 -2 2 -2 2 -1 1 -2 2 -2 1 -2 1 -2 2 -2 1 -2 1 -2 1 -2 1 -2 2 -2 1 -2 0 -3 1 -2 1 -2 1 -2 1 -2 0 -3 1 -2 0 -2 1 -3 0 -2 1 -2 0 -3 0 -2 0 -3 1 -2 0 -3 0 0 -15 3 0 2 0 2 0 2 0 2 0 2 -1 2 0 2 0 2 -1 2 0 2 -1 2 0 2 -1 1 0 2 -1 2 -1 2 -1 2 0 1 -1 2 -1 2 -1 1 -1 2 -1 2 -1 1 -1 2 -2 1 -1 2 -1 2 -2 1 -1 2 -1 1 -2 0 0zm23 -59l15 0 0 0 0 3 0 2 -1 3 0 2 0 3 0 2 -1 2 0 3 0 2 -1 2 -1 2 0 3 -1 2 -1 2 0 2 -1 3 -1 2 -1 2 -1 2 -1 2 -1 2 -1 2 -1 2 -2 2 -1 2 -1 2 -2 2 -1 2 -2 2 -1 1 -2 2 -2 2 -10 -10 1 -2 2 -1 1 -2 2 -1 1 -2 1 -2 1 -1 1 -2 1 -2 1 -1 1 -2 1 -2 1 -1 1 -2 1 -2 1 -2 0 -2 1 -1 1 -2 0 -2 1 -2 0 -2 1 -2 0 -2 0 -2 1 -2 0 -2 0 -2 0 -2 0 -2 0 -2 0 -3 0 0z"/>
    </g>
    <g>
     <path id="7" class="fil1" d="M1130 524l-14 -5 0 0 1 0 0 -1 0 -1 0 -1 1 -1 0 -1 0 -1 0 -1 1 -1 0 -1 0 -1 0 -2 0 -1 1 -1 0 -1 0 -2 0 -1 0 -1 0 -2 0 -1 1 -2 0 -1 0 -1 0 -2 0 -2 0 -1 0 -2 0 -2 0 -1 0 -2 0 -2 0 -2 15 0 0 2 0 2 -1 2 0 2 0 2 0 1 0 2 0 2 0 1 0 2 0 2 0 1 0 2 -1 1 0 2 0 1 0 2 0 1 0 1 -1 2 0 1 0 1 0 2 -1 1 0 1 0 1 0 2 -1 1 0 1 0 1 -1 1 0 1 0 0zm-37 41l-6 -13 -1 0 2 -1 1 -1 2 0 1 -1 1 -1 1 -1 2 -1 1 0 1 -1 1 -1 1 -1 1 -1 1 -1 1 -1 1 -1 1 -1 1 -1 1 -1 1 -1 1 -1 0 -1 1 -1 1 -1 1 -1 0 -2 1 -1 1 -1 0 -1 1 -2 0 -1 1 -1 0 -2 14 5 -1 2 0 2 -1 1 -1 2 -1 1 0 2 -1 1 -1 2 -1 1 -1 2 -1 1 -1 2 -1 1 -1 1 -1 2 -1 1 -1 1 -2 1 -1 2 -1 1 -2 1 -1 1 -1 1 -2 1 -1 1 -2 1 -1 1 -2 1 -1 1 -2 1 -2 1 -1 1 0 0zm-36 7l0 -14 0 0 1 0 1 0 1 0 1 0 1 0 1 0 1 0 1 0 1 0 1 -1 1 0 1 0 1 0 1 0 1 0 1 -1 1 0 1 0 0 0 1 0 1 -1 1 0 1 0 1 0 1 -1 1 0 0 0 1 -1 1 0 1 0 1 -1 1 0 6 13 -1 0 -1 1 -1 0 -1 1 -1 0 -1 0 -2 1 -1 0 -1 0 -1 1 -1 0 -1 0 -1 1 -1 0 -1 0 -1 1 -1 0 -2 0 -1 0 -1 0 -1 1 -1 0 -1 0 -2 0 -1 0 -1 0 -1 0 -1 0 -2 0 -1 0 -1 0 -1 0 0 0zm-26 -3l4 -14 0 0 1 0 1 0 0 1 1 0 1 0 0 0 1 0 1 0 0 0 1 1 1 0 0 0 1 0 1 0 0 0 1 0 1 0 1 0 0 1 1 0 1 0 0 0 1 0 1 0 0 0 1 0 1 0 0 0 1 0 1 0 0 0 1 0 0 14 -1 0 -1 0 -1 0 0 0 -1 0 -1 0 -1 0 0 0 -1 0 -1 0 -1 0 -1 0 0 0 -1 0 -1 0 -1 -1 -1 0 0 0 -1 0 -1 0 -1 0 -1 0 0 0 -1 -1 -1 0 -1 0 -1 0 0 0 -1 -1 -1 0 -1 0 -1 0 0 0zm-23 -11l9 -11 0 0 1 0 0 0 1 1 0 0 0 0 1 0 0 1 1 0 0 0 1 1 0 0 1 0 1 1 0 0 1 0 0 0 1 1 0 0 1 0 0 0 1 1 1 0 0 0 1 0 0 1 1 0 1 0 0 0 1 0 1 1 0 0 1 0 -4 14 -1 0 0 -1 -1 0 -1 0 -1 0 -1 -1 0 0 -1 0 -1 -1 -1 0 0 0 -1 0 -1 -1 -1 0 0 0 -1 -1 -1 0 0 0 -1 -1 -1 0 -1 -1 0 0 -1 0 -1 -1 0 0 -1 -1 0 0 -1 0 -1 -1 0 0 -1 -1 -1 0 0 0zm-4 -19l-12 -8 12 0 0 1 0 0 1 1 0 1 1 0 0 1 0 0 1 1 0 0 1 1 0 0 1 1 0 0 0 1 1 0 0 1 1 0 0 1 1 0 0 1 0 0 1 1 0 0 1 0 0 1 1 0 0 1 0 0 1 0 0 1 1 0 0 1 -9 11 0 -1 -1 0 0 -1 -1 0 0 -1 -1 0 -1 -1 0 0 -1 -1 0 0 -1 -1 0 0 -1 -1 0 0 -1 -1 0 -1 -1 0 -1 -1 0 0 -1 -1 0 -1 -1 0 0 -1 -1 -1 0 0 -1 -1 0 0 0 -1 -1 -1 0 -1 -1 0 0 -1 12 0zm-12 -8l5 -9 7 9 -12 0zm-5 27l-9 -12 0 0 1 0 0 -1 1 0 0 0 0 -1 1 0 0 -1 1 0 0 0 1 -1 0 0 1 -1 0 0 0 -1 1 0 0 -1 1 0 0 -1 1 0 0 0 0 -1 1 0 0 -1 1 0 0 -1 0 -1 1 0 0 -1 0 0 1 -1 0 0 1 -1 12 8 -1 1 0 0 -1 1 0 1 -1 0 0 1 -1 1 0 0 0 1 -1 0 0 1 -1 1 -1 0 0 1 -1 0 0 1 -1 1 0 0 -1 1 0 0 -1 1 0 0 -1 1 0 1 -1 0 -1 1 0 0 -1 1 0 0 -1 1 -1 0 0 1 0 0zm-23 11l-4 -14 0 0 0 0 1 0 1 -1 0 0 1 0 1 0 0 0 1 -1 0 0 1 0 1 0 0 -1 1 0 0 0 1 0 1 -1 0 0 1 0 0 -1 1 0 0 0 1 0 0 -1 1 0 0 0 1 -1 1 0 0 0 1 -1 0 0 1 -1 0 0 9 12 -1 0 -1 0 0 1 -1 0 -1 1 0 0 -1 1 -1 0 0 1 -1 0 -1 0 0 1 -1 0 -1 0 0 1 -1 0 -1 1 -1 0 0 0 -1 1 -1 0 -1 0 0 0 -1 1 -1 0 -1 0 0 1 -1 0 -1 0 -1 0 -1 1 0 0 0 0zm-25 3l0 -14 0 0 1 0 0 0 1 0 0 0 1 0 1 0 0 0 1 0 1 0 0 0 1 0 1 0 0 0 1 -1 0 0 1 0 1 0 0 0 1 0 1 0 0 0 1 0 1 0 0 -1 1 0 1 0 0 0 1 0 1 0 0 -1 1 0 1 0 4 14 -1 0 -1 0 -1 0 -1 1 0 0 -1 0 -1 0 -1 0 0 1 -1 0 -1 0 -1 0 -1 0 0 0 -1 0 -1 0 -1 1 0 0 -1 0 -1 0 -1 0 0 0 -1 0 -1 0 -1 0 0 0 -1 0 -1 0 -1 0 -1 0 0 0 -1 0 0 0zm-37 -7l6 -13 0 0 1 0 1 1 1 0 1 0 0 1 1 0 1 0 1 1 1 0 1 0 1 0 1 1 1 0 1 0 1 0 1 0 1 1 0 0 1 0 1 0 1 0 1 0 1 1 2 0 1 0 1 0 1 0 1 0 1 0 1 0 1 0 1 0 0 14 -1 0 -2 0 -1 0 -1 0 -1 0 -1 0 -2 0 -1 0 -1 0 -1 0 -1 0 -2 -1 -1 0 -1 0 -1 0 -1 0 -1 -1 -2 0 -1 0 -1 -1 -1 0 -1 0 -1 -1 -1 0 -1 0 -1 -1 -2 0 -1 0 -1 -1 -1 0 -1 -1 -1 0 0 0zm-36 -41l13 -4 0 -1 1 2 0 1 1 2 0 1 1 1 1 1 0 2 1 1 1 1 0 1 1 1 1 1 1 1 1 1 0 1 1 1 1 1 1 1 1 1 1 1 1 1 1 1 1 1 1 1 2 1 1 0 1 1 1 1 1 1 2 0 1 1 1 1 -6 13 -2 -1 -1 -1 -2 -1 -1 -1 -2 -1 -1 -1 -2 -1 -1 -1 -2 -1 -1 -1 -1 -1 -2 -1 -1 -1 -1 -1 -1 -2 -1 -1 -2 -1 -1 -2 -1 -1 -1 -1 -1 -2 -1 -1 -1 -2 0 -1 -1 -2 -1 -1 -1 -2 -1 -1 0 -2 -1 -1 -1 -2 0 -2 0 0zm-6 -47l14 0 0 0 0 2 0 2 0 2 0 1 0 2 0 1 0 2 0 1 0 2 1 1 0 2 0 1 0 2 0 1 0 1 0 2 0 1 1 1 0 2 0 1 0 1 1 1 0 1 0 1 0 2 0 1 1 1 0 1 0 1 1 1 0 1 0 1 -13 4 -1 -1 0 -1 0 -1 -1 -1 0 -2 0 -1 -1 -1 0 -1 0 -2 -1 -1 0 -1 0 -2 0 -1 0 -2 -1 -1 0 -1 0 -2 0 -1 0 -2 -1 -1 0 -2 0 -2 0 -1 0 -2 0 -1 0 -2 0 -2 0 -1 0 -2 0 -2 0 -2 0 -2 0 0zm14 -147l0 147 -14 0 0 -147 7 -7 7 7zm-14 0l0 -7 7 0 -7 7zm38 7l-31 0 0 -14 31 0 7 7 -7 7zm0 -14l7 0 0 7 -7 -7zm-7 156l0 -149 14 0 0 149 0 0 -14 0zm16 27l-14 3 0 0 0 -1 0 0 0 -1 -1 -1 0 0 0 -1 0 -1 0 0 0 -1 0 -1 0 -1 0 -1 0 0 -1 -1 0 -1 0 -1 0 -1 0 -1 0 -1 0 -1 0 -1 0 -1 0 -1 0 -1 0 -1 0 -1 0 -1 0 -2 0 -1 0 -1 0 -1 0 -2 14 0 0 2 0 1 0 1 0 1 0 1 0 1 0 1 0 1 0 1 0 1 0 1 0 1 0 1 0 1 1 1 0 1 0 1 0 0 0 1 0 1 0 1 0 0 0 1 0 1 0 0 0 1 0 0 1 1 0 0 0 1 0 0 0 1 0 0zm14 18l-8 12 0 0 -1 0 -1 -1 -1 -1 -1 0 -1 -1 0 -1 -1 0 -1 -1 -1 -1 -1 -1 0 0 -1 -1 -1 -1 0 -1 -1 -1 -1 0 0 -1 -1 -1 -1 -1 0 -1 -1 -1 0 -1 -1 -1 0 -1 -1 -1 0 -1 0 -1 -1 -1 0 -1 0 -1 -1 -1 0 -1 14 -3 0 0 0 1 0 1 1 0 0 1 0 1 1 1 0 0 0 1 0 0 1 1 0 1 1 0 0 1 0 0 1 1 0 1 1 0 0 1 1 0 0 1 1 0 0 1 1 0 0 1 1 0 0 1 1 0 1 1 0 0 1 1 1 0 0 0zm8 4l-3 14 0 0 -1 0 0 0 0 -1 -1 0 0 0 -1 0 0 0 0 0 -1 0 0 -1 -1 0 0 0 0 0 -1 0 0 0 -1 0 0 -1 -1 0 0 0 0 0 -1 0 0 -1 0 0 -1 0 0 0 -1 0 0 -1 0 0 -1 0 0 0 -1 -1 0 0 8 -12 0 0 0 0 0 1 1 0 0 0 0 0 1 0 0 0 0 0 0 1 1 0 0 0 0 0 0 0 1 0 0 0 0 0 1 1 0 0 0 0 0 0 1 0 0 0 0 0 0 0 1 0 0 0 0 1 0 0 1 0 0 0 0 0 0 0zm11 1l0 14 0 0 0 0 -1 0 0 0 -1 0 0 0 -1 0 0 0 -1 0 0 0 -1 0 0 0 -1 0 0 0 0 0 -1 0 0 0 -1 0 0 0 -1 0 0 0 -1 0 0 0 0 -1 -1 0 0 0 -1 0 0 0 0 0 -1 0 0 0 -1 0 0 0 3 -14 1 0 0 0 0 0 0 0 1 0 0 0 0 0 1 0 0 0 0 0 1 0 0 0 0 1 1 0 0 0 0 0 0 0 1 0 0 0 1 0 0 0 0 0 1 0 0 0 0 0 1 0 0 0 0 0 1 0 0 0 1 0 0 0 0 0zm20 -5l8 12 0 0 -1 0 -1 1 0 0 -1 1 -1 0 -1 0 0 1 -1 0 -1 0 -1 1 -1 0 -1 0 0 1 -1 0 -1 0 -1 0 -1 1 -1 0 -1 0 -1 0 -1 0 0 1 -1 0 -1 0 -1 0 -1 0 -1 0 -1 0 -1 0 -1 0 -1 0 -1 0 0 -14 1 0 1 0 0 0 1 0 1 0 1 0 0 0 1 0 1 0 0 -1 1 0 1 0 0 0 1 0 1 0 0 0 1 -1 1 0 0 0 1 0 0 0 1 -1 1 0 0 0 1 0 0 -1 1 0 0 0 1 0 0 -1 1 0 0 0 0 0zm13 -18l14 3 0 0 0 1 0 1 0 1 -1 1 0 1 -1 1 0 1 0 1 -1 1 0 1 -1 1 0 1 -1 1 0 1 -1 0 -1 1 0 1 -1 1 0 1 -1 1 -1 0 -1 1 0 1 -1 1 -1 0 -1 1 -1 1 0 0 -1 1 -1 1 -1 0 -1 1 -8 -12 1 -1 1 0 0 -1 1 0 0 0 1 -1 1 0 0 -1 1 0 0 -1 1 0 0 -1 1 0 0 -1 0 -1 1 0 0 -1 1 0 0 -1 0 0 1 -1 0 -1 0 0 1 -1 0 0 0 -1 0 -1 1 0 0 -1 0 -1 0 0 0 -1 0 0zm2 -27l14 0 0 0 0 2 0 1 0 1 0 2 0 1 0 1 0 1 0 1 0 1 0 2 0 1 0 1 0 1 0 1 0 1 0 1 0 0 0 1 0 1 0 1 -1 1 0 1 0 0 0 1 0 1 0 1 0 0 0 1 0 0 0 1 -1 1 0 0 -14 -3 0 0 1 -1 0 0 0 0 0 -1 0 -1 0 0 0 -1 0 0 0 -1 0 0 0 -1 0 -1 0 -1 0 0 0 -1 1 -1 0 -1 0 -1 0 -1 0 -1 0 -1 0 -1 0 -1 0 -1 0 -1 0 -1 0 -2 0 -1 0 -1 0 -1 0 -2 0 0zm14 -149l0 149 -14 0 0 -149 7 -7 7 7zm-14 0l0 -7 7 0 -7 7zm38 7l-31 0 0 -14 31 0 7 7 -7 7zm0 -14l7 0 0 7 -7 -7zm-7 156l0 -149 14 0 0 149 0 0 -14 0zm16 27l-14 3 0 0 0 -1 0 0 -1 -1 0 -1 0 0 0 -1 0 -1 0 0 0 -1 0 -1 0 0 0 -1 0 -1 0 -1 -1 -1 0 -1 0 -1 0 -1 0 -1 0 -1 0 -1 0 -1 0 -1 0 -1 0 -1 0 -1 0 -1 0 -1 0 -2 0 -1 0 -1 0 -2 14 0 0 2 0 1 0 1 0 1 0 2 0 1 0 1 0 1 0 1 0 1 1 1 0 1 0 1 0 1 0 1 0 0 0 1 0 1 0 1 0 1 0 0 0 1 0 1 0 0 0 1 0 0 0 1 1 0 0 1 0 0 0 0 0 1 0 0zm13 18l-8 12 0 0 -1 -1 -1 0 -1 -1 0 -1 -1 0 -1 -1 -1 -1 -1 0 0 -1 -1 -1 -1 -1 -1 0 0 -1 -1 -1 -1 -1 0 -1 -1 -1 0 0 -1 -1 -1 -1 0 -1 -1 -1 0 -1 0 -1 -1 -1 0 -1 -1 -1 0 -1 0 -1 -1 -1 0 -1 0 -1 14 -3 0 0 0 1 0 1 1 0 0 1 0 1 0 0 1 1 0 1 0 0 1 1 0 1 0 0 1 1 0 0 0 1 1 0 0 1 1 0 0 1 1 1 0 0 1 1 0 0 1 1 0 0 1 1 0 0 1 0 1 1 0 0 1 1 0 0zm20 5l0 14 0 0 -1 0 -1 0 -1 0 -1 0 -1 0 -1 0 -1 0 -1 0 -1 0 -1 0 -1 -1 0 0 -1 0 -1 0 -1 0 -1 -1 -1 0 -1 0 -1 0 0 -1 -1 0 -1 0 -1 -1 -1 0 -1 0 0 -1 -1 0 -1 0 -1 -1 0 0 -1 -1 -1 0 8 -12 0 0 1 0 0 1 1 0 0 0 1 1 0 0 1 0 1 0 0 0 1 1 0 0 1 0 0 0 1 0 1 1 0 0 1 0 1 0 0 0 1 0 1 0 0 1 1 0 1 0 0 0 1 0 1 0 1 0 0 0 1 0 1 0 0 0zm20 -5l7 12 0 0 -1 1 0 0 -1 1 -1 0 -1 0 0 1 -1 0 -1 0 -1 1 -1 0 0 0 -1 1 -1 0 -1 0 -1 0 -1 1 0 0 -1 0 -1 0 -1 0 -1 0 -1 1 -1 0 -1 0 -1 0 0 0 -1 0 -1 0 -1 0 -1 0 -1 0 -1 0 0 -14 1 0 0 0 1 0 1 0 1 0 0 0 1 0 1 0 0 0 1 -1 1 0 0 0 1 0 1 0 0 0 1 0 1 0 0 -1 1 0 0 0 1 0 0 0 1 -1 1 0 0 0 1 0 0 -1 1 0 0 0 1 0 0 -1 1 0 0 0zm13 -18l14 4 0 0 0 1 -1 1 0 1 0 1 -1 1 0 1 -1 1 0 1 0 1 -1 1 0 1 -1 0 0 1 -1 1 -1 1 0 1 -1 1 -1 1 0 0 -1 1 -1 1 0 1 -1 0 -1 1 -1 1 -1 0 0 1 -1 1 -1 0 -1 1 -1 1 -1 0 -7 -12 0 0 1 -1 1 0 0 -1 1 0 0 -1 1 0 0 -1 1 0 1 -1 0 0 0 -1 1 0 0 -1 1 0 0 -1 1 0 0 -1 0 0 1 -1 0 -1 0 0 1 -1 0 0 0 -1 1 -1 0 0 0 -1 0 -1 1 0 0 -1 0 -1 0 0zm2 -27l14 0 0 0 0 2 0 1 0 1 0 1 0 1 0 2 0 1 0 1 0 1 0 1 0 1 0 1 0 1 0 1 0 1 0 1 0 1 0 1 0 1 -1 1 0 0 0 1 0 1 0 1 0 1 0 0 0 1 0 1 -1 1 0 0 0 1 0 1 -14 -4 0 0 0 -1 0 0 0 -1 1 0 0 -1 0 -1 0 0 0 -1 0 -1 0 0 0 -1 0 -1 0 -1 0 0 1 -1 0 -1 0 -1 0 -1 0 -1 0 -1 0 -1 0 -1 0 -1 0 -1 0 -1 0 -1 0 -1 0 -1 0 -1 0 -1 0 -2 0 0zm14 -149l0 149 -14 0 0 -149 7 -7 7 7zm-14 0l0 -7 7 0 -7 7zm38 7l-31 0 0 -14 31 0 8 7 -8 7zm0 -14l8 0 0 7 -8 -7zm-7 154l0 -147 15 0 0 147 0 0 -15 0z"/>
    </g>
    <g>
     <path id="8" class="fil1" d="M1425 535l-10 -10 0 0 2 -2 2 -2 2 -2 2 -2 1 -2 2 -3 2 -2 1 -2 2 -2 1 -3 2 -2 1 -2 2 -3 1 -2 1 -3 1 -2 1 -3 1 -2 1 -3 1 -2 0 -3 1 -2 1 -3 0 -3 1 -2 0 -3 1 -3 0 -3 0 -2 0 -3 0 -3 0 -3 15 0 0 3 0 3 -1 4 0 3 0 3 -1 3 0 3 -1 3 0 3 -1 3 -1 3 -1 3 -1 3 -1 3 -1 3 -1 3 -1 2 -1 3 -2 3 -1 3 -2 2 -1 3 -2 2 -2 3 -2 3 -2 2 -2 3 -2 2 -2 2 -2 3 -2 2 -2 2 0 0zm-90 37l0 -14 0 0 3 0 3 0 3 0 2 0 3 -1 3 0 3 -1 2 0 3 -1 2 0 3 -1 3 -1 2 0 3 -1 2 -1 3 -1 2 -1 3 -1 2 -1 2 -2 3 -1 2 -1 3 -2 2 -1 2 -2 2 -2 3 -1 2 -2 2 -2 2 -2 2 -2 3 -2 10 10 -3 3 -2 2 -3 2 -2 2 -3 2 -2 2 -3 2 -2 2 -3 1 -2 2 -3 1 -3 2 -2 1 -3 2 -3 1 -3 1 -3 1 -2 1 -3 1 -3 1 -3 1 -3 1 -3 0 -3 1 -3 1 -3 0 -3 0 -3 1 -3 0 -4 0 -3 0 -3 0 0 0zm-90 -37l10 -10 0 0 3 2 2 2 2 2 2 2 2 2 3 1 2 2 2 2 2 1 3 2 2 1 3 1 2 2 2 1 3 1 2 1 3 1 2 1 3 1 2 0 3 1 3 1 2 0 3 1 2 0 3 1 3 0 3 1 2 0 3 0 3 0 3 0 0 14 -3 0 -3 0 -4 0 -3 0 -3 -1 -3 0 -3 0 -3 -1 -3 -1 -3 0 -3 -1 -3 -1 -3 -1 -3 -1 -2 -1 -3 -1 -3 -1 -3 -1 -3 -2 -2 -1 -3 -2 -3 -1 -2 -2 -3 -1 -2 -2 -3 -2 -2 -2 -3 -2 -2 -2 -3 -2 -2 -2 -3 -3 0 0zm-38 -89l15 0 0 0 0 3 0 3 0 3 0 2 0 3 1 3 0 3 1 2 0 3 1 3 1 2 0 3 1 2 1 3 1 2 1 3 1 2 1 3 1 2 2 3 1 2 2 2 1 3 2 2 1 2 2 2 2 3 1 2 2 2 2 2 2 2 2 2 -10 10 -2 -2 -2 -2 -2 -3 -2 -2 -2 -2 -2 -3 -2 -2 -2 -3 -2 -3 -2 -2 -1 -3 -2 -2 -1 -3 -2 -3 -1 -3 -1 -2 -1 -3 -1 -3 -1 -3 -1 -3 -1 -3 -1 -3 -1 -3 0 -3 -1 -3 0 -3 -1 -3 0 -3 0 -3 -1 -4 0 -3 0 -3 0 0zm38 -89l10 10 0 0 -2 2 -2 2 -2 2 -2 2 -1 3 -2 2 -2 2 -1 2 -2 3 -1 2 -2 2 -1 2 -2 3 -1 2 -1 3 -1 2 -1 3 -1 2 -1 3 -1 2 0 3 -1 2 -1 3 0 3 -1 2 0 3 -1 3 0 3 0 2 0 3 0 3 0 3 -15 0 0 -3 0 -3 1 -4 0 -3 0 -3 1 -3 0 -3 1 -3 0 -3 1 -3 1 -3 1 -3 1 -3 1 -3 1 -3 1 -3 1 -2 1 -3 2 -3 1 -2 2 -3 1 -3 2 -2 2 -3 2 -3 2 -2 2 -2 2 -3 2 -2 2 -3 2 -2 2 -2 0 0zm90 -37l0 14 0 0 -3 0 -3 0 -3 0 -2 1 -3 0 -3 0 -3 1 -2 0 -3 1 -2 0 -3 1 -3 1 -2 0 -3 1 -2 1 -3 1 -2 1 -3 1 -2 2 -2 1 -3 1 -2 1 -3 2 -2 1 -2 2 -2 2 -3 1 -2 2 -2 2 -2 2 -2 2 -3 2 -10 -10 3 -3 2 -2 3 -2 2 -2 3 -2 2 -2 3 -2 2 -1 3 -2 2 -2 3 -1 3 -2 2 -1 3 -2 3 -1 3 -1 3 -1 2 -1 3 -1 3 -1 3 -1 3 -1 3 0 3 -1 3 -1 3 0 3 0 3 -1 3 0 4 0 3 0 3 0 0 0zm90 37l-10 10 0 0 -3 -2 -2 -2 -2 -2 -2 -2 -2 -2 -3 -1 -2 -2 -2 -2 -2 -1 -3 -2 -2 -1 -3 -1 -2 -1 -2 -2 -3 -1 -2 -1 -3 -1 -2 -1 -3 -1 -2 0 -3 -1 -3 -1 -2 0 -3 -1 -2 0 -3 -1 -3 0 -3 0 -2 -1 -3 0 -3 0 -3 0 0 -14 3 0 3 0 4 0 3 0 3 1 3 0 3 0 3 1 3 1 3 0 3 1 3 1 3 1 3 1 2 1 3 1 3 1 3 1 3 2 2 1 3 2 3 1 2 2 3 2 2 1 3 2 2 2 3 2 2 2 3 2 2 2 3 3 0 0zm38 89l-15 0 0 0 0 -3 0 -3 0 -3 0 -2 0 -3 -1 -3 0 -3 -1 -2 0 -3 -1 -3 -1 -2 0 -3 -1 -2 -1 -3 -1 -2 -1 -3 -1 -2 -1 -3 -1 -2 -2 -3 -1 -2 -2 -2 -1 -2 -2 -3 -1 -2 -2 -2 -2 -2 -1 -3 -2 -2 -2 -2 -2 -2 -2 -2 10 -10 2 2 2 2 2 3 2 2 2 3 2 2 2 2 2 3 2 3 2 2 1 3 2 3 1 2 2 3 1 3 1 2 1 3 1 3 1 3 1 3 1 3 1 3 1 3 0 3 1 3 0 3 1 3 0 3 0 3 1 4 0 3 0 3 0 0zm-70 -59l10 -9 0 0 2 1 1 2 2 2 1 2 2 2 1 2 2 2 1 1 1 2 1 2 1 2 2 3 1 2 1 2 1 2 0 2 1 2 1 2 1 3 0 2 1 2 1 2 0 3 1 2 0 2 0 3 1 2 0 2 0 3 0 2 0 3 0 2 -14 0 0 -2 0 -2 0 -2 0 -2 -1 -2 0 -3 0 -2 -1 -2 0 -2 0 -1 -1 -2 0 -2 -1 -2 -1 -2 0 -2 -1 -2 -1 -2 0 -1 -1 -2 -1 -2 -1 -2 -1 -1 -1 -2 -1 -2 -1 -1 -1 -2 -2 -2 -1 -1 -1 -2 -2 -1 -1 -2 -1 -2 0 0zm-58 -24l0 -14 0 0 2 0 3 0 2 0 3 0 2 1 3 0 2 0 2 1 3 0 2 1 2 0 2 1 3 1 2 0 2 1 2 1 2 1 2 1 2 1 3 1 2 1 2 1 1 2 2 1 2 1 2 2 2 1 2 2 2 1 1 2 2 2 2 2 -10 9 -2 -1 -1 -2 -2 -1 -1 -1 -2 -2 -2 -1 -1 -1 -2 -1 -1 -1 -2 -1 -2 -1 -1 -1 -2 -1 -2 -1 -2 -1 -1 -1 -2 -1 -2 0 -2 -1 -2 0 -2 -1 -2 0 -1 -1 -2 0 -2 -1 -2 0 -2 0 -2 0 -3 -1 -2 0 -2 0 -2 0 0 0zm-58 24l-10 -9 0 0 2 -2 2 -2 1 -2 2 -1 2 -2 2 -1 2 -2 2 -1 2 -1 1 -2 2 -1 2 -1 3 -1 2 -1 2 -1 2 -1 2 -1 2 -1 2 0 3 -1 2 -1 2 0 2 -1 3 0 2 -1 2 0 3 0 2 -1 3 0 2 0 3 0 2 0 0 14 -2 0 -2 0 -2 0 -3 1 -2 0 -2 0 -2 0 -2 1 -2 0 -1 1 -2 0 -2 1 -2 0 -2 1 -2 0 -2 1 -1 1 -2 1 -2 1 -2 1 -1 1 -2 1 -2 1 -1 1 -2 1 -1 1 -2 1 -2 2 -1 1 -2 1 -1 2 -2 1 0 0zm-23 59l-14 0 0 0 0 -2 0 -3 0 -2 0 -3 0 -2 1 -2 0 -3 0 -2 1 -2 0 -3 1 -2 1 -2 0 -2 1 -3 1 -2 1 -2 0 -2 1 -2 1 -2 1 -2 2 -3 1 -2 1 -2 1 -2 1 -1 2 -2 1 -2 2 -2 1 -2 2 -2 1 -2 2 -1 10 9 -1 2 -1 2 -2 1 -1 2 -1 1 -2 2 -1 2 -1 1 -1 2 -1 2 -1 1 -1 2 -1 2 -1 2 0 1 -1 2 -1 2 0 2 -1 2 -1 2 0 2 -1 2 0 1 0 2 -1 2 0 2 0 3 -1 2 0 2 0 2 0 2 0 2 0 0zm23 59l-10 10 0 0 -2 -2 -1 -2 -2 -2 -1 -2 -2 -2 -1 -1 -2 -2 -1 -2 -1 -2 -1 -2 -1 -2 -2 -2 -1 -3 -1 -2 -1 -2 0 -2 -1 -2 -1 -2 -1 -2 0 -3 -1 -2 -1 -2 0 -2 -1 -3 0 -2 0 -2 -1 -3 0 -2 0 -3 0 -2 0 -2 0 -3 14 0 0 2 0 2 0 2 0 3 1 2 0 2 0 2 1 2 0 2 0 2 1 1 0 2 1 2 1 2 0 2 1 2 1 2 0 1 1 2 1 2 1 2 1 1 1 2 1 2 1 1 1 2 2 2 1 1 1 2 2 2 1 1 1 2 0 0zm58 24l0 14 0 0 -2 0 -3 0 -2 0 -3 0 -2 0 -3 -1 -2 0 -2 -1 -3 0 -2 -1 -2 0 -2 -1 -3 0 -2 -1 -2 -1 -2 -1 -2 -1 -2 -1 -2 -1 -3 -1 -2 -1 -2 -1 -1 -2 -2 -1 -2 -1 -2 -2 -2 -1 -2 -2 -2 -1 -1 -2 -2 -2 -2 -1 10 -10 2 1 1 2 2 1 1 1 2 2 2 1 1 1 2 1 1 1 2 1 2 2 1 0 2 1 2 1 2 1 1 1 2 1 2 0 2 1 2 1 2 0 2 1 1 0 2 0 2 1 2 0 2 0 2 1 3 0 2 0 2 0 2 0 0 0zm58 -24l10 10 0 0 -2 1 -2 2 -1 2 -2 1 -2 2 -2 1 -2 2 -2 1 -2 1 -1 2 -2 1 -2 1 -3 1 -2 1 -2 1 -2 1 -2 1 -2 1 -2 1 -3 0 -2 1 -2 0 -2 1 -3 0 -2 1 -2 0 -3 1 -2 0 -3 0 -2 0 -3 0 -2 0 0 -14 2 0 2 0 2 0 3 0 2 -1 2 0 2 0 2 -1 2 0 1 0 2 -1 2 0 2 -1 2 -1 2 0 2 -1 1 -1 2 -1 2 -1 2 -1 1 0 2 -2 2 -1 1 -1 2 -1 1 -1 2 -1 2 -2 1 -1 2 -1 1 -2 2 -1 0 0zm23 -59l14 0 0 0 0 3 0 2 0 2 0 3 0 2 -1 3 0 2 0 2 -1 3 0 2 -1 2 -1 2 0 3 -1 2 -1 2 -1 2 0 2 -1 2 -1 2 -1 3 -2 2 -1 2 -1 2 -1 2 -1 2 -2 2 -1 1 -2 2 -1 2 -2 2 -1 2 -2 2 -10 -10 1 -2 1 -1 2 -2 1 -2 1 -1 2 -2 1 -2 1 -1 1 -2 1 -2 1 -1 1 -2 1 -2 1 -2 0 -1 1 -2 1 -2 0 -2 1 -2 1 -2 0 -2 1 -1 0 -2 0 -2 1 -2 0 -2 0 -2 1 -2 0 -3 0 -2 0 -2 0 -2 0 0z"/>
    </g>
    <g>
     <path id="9" class="fil1" d="M1663 555l31 0 0 14 -31 0 -7 -7 7 -7zm0 14l-7 0 0 -7 7 7zm7 -68l0 61 -14 0 0 -61 0 0 14 0zm-26 -28l8 -12 0 0 1 0 1 1 1 1 1 1 1 1 1 1 1 1 1 1 1 1 1 1 1 1 0 1 1 1 1 2 0 1 1 1 0 1 1 2 0 1 1 1 0 2 0 1 1 2 0 1 0 2 0 1 1 2 0 1 0 2 0 1 0 2 0 2 -14 0 0 -2 0 -1 0 -1 -1 -2 0 -1 0 -1 0 -1 0 -1 0 -2 -1 -1 0 -1 0 -1 0 -1 -1 -1 0 0 0 -1 -1 -1 0 -1 -1 -1 0 0 0 -1 -1 -1 0 -1 -1 0 0 -1 -1 0 -1 -1 0 0 -1 -1 0 -1 -1 0 -1 0 0 0zm-21 -5l0 -15 0 0 1 0 1 0 1 0 1 1 1 0 1 0 1 0 1 0 1 0 1 0 1 0 1 0 1 1 1 0 1 0 1 0 1 0 1 1 1 0 1 0 0 0 1 1 1 0 1 0 1 1 1 0 0 0 1 1 1 0 1 1 0 0 1 1 -8 12 0 -1 -1 0 0 0 0 0 -1 -1 0 0 -1 0 -1 0 0 -1 -1 0 0 0 -1 0 0 0 -1 -1 -1 0 0 0 -1 0 -1 0 0 0 -1 0 -1 -1 -1 0 0 0 -1 0 -1 0 -1 0 -1 0 0 0 -1 0 -1 0 -1 0 -1 0 0 0zm-38 -15l38 0 0 15 -38 0 -8 -7 8 -8zm0 15l-8 0 0 -7 8 7zm7 -37l0 30 -15 0 0 -30 8 -7 7 7zm-15 0l0 -7 8 0 -8 7zm34 8l-26 0 0 -15 26 0 0 0 0 15zm33 -25l10 10 0 0 -1 1 -1 1 -1 1 -1 1 -2 1 -1 0 -1 1 -1 1 -1 0 -1 1 -1 1 -2 0 -1 1 -1 0 -2 1 -1 0 -1 1 -2 0 -1 0 -2 1 -1 0 -1 0 -2 1 -1 0 -2 0 -1 0 -2 0 -2 0 -1 1 -2 0 -2 0 -1 0 0 -15 1 0 2 0 1 0 1 0 2 0 1 0 1 0 2 0 1 -1 1 0 1 0 1 0 1 -1 2 0 1 0 1 0 1 -1 1 0 1 0 0 -1 1 0 1 -1 1 0 1 -1 1 0 0 -1 1 0 1 -1 1 0 0 -1 1 0 1 -1 0 0zm8 -20l14 0 0 0 0 1 0 1 0 1 0 1 0 1 0 1 -1 1 0 1 0 1 0 2 0 1 -1 1 0 1 0 1 -1 1 0 1 0 1 -1 0 0 1 -1 1 0 1 -1 1 0 1 -1 1 -1 1 0 1 -1 0 -1 1 0 1 -1 1 -1 1 0 0 -10 -10 0 0 1 -1 0 0 1 -1 0 0 0 -1 1 -1 0 0 1 -1 0 0 0 -1 0 0 1 -1 0 -1 0 0 1 -1 0 0 0 -1 0 -1 0 0 1 -1 0 -1 0 0 0 -1 0 -1 0 -1 0 0 1 -1 0 -1 0 -1 0 0 0 -1 0 0zm-6 -19l11 -9 0 0 0 1 1 0 0 1 1 1 0 1 1 0 0 1 1 1 0 1 1 1 0 0 0 1 1 1 0 1 0 1 1 1 0 1 0 0 1 1 0 1 0 1 0 1 0 1 0 1 1 1 0 1 0 1 0 1 0 1 0 1 0 1 0 1 -14 0 0 -1 0 -1 0 0 0 -1 0 -1 -1 -1 0 0 0 -1 0 -1 0 0 0 -1 0 0 0 -1 -1 -1 0 0 0 -1 0 0 0 -1 -1 -1 0 0 0 -1 0 0 -1 -1 0 0 0 -1 0 0 -1 -1 0 0 0 -1 -1 0 0 -1 0 0 0 0zm-12 -9l6 -13 0 0 1 0 0 1 1 0 1 0 0 1 1 0 0 0 1 0 0 1 1 0 1 1 0 0 1 0 0 1 1 0 0 0 1 1 0 0 1 1 0 0 1 0 0 1 1 0 0 1 1 0 0 1 1 0 0 1 0 0 1 1 0 0 1 1 -11 9 -1 -1 0 0 0 0 -1 -1 0 0 0 0 0 -1 -1 0 0 0 0 -1 -1 0 0 0 0 0 -1 -1 0 0 0 0 -1 0 0 -1 0 0 -1 0 0 0 -1 -1 0 0 0 0 -1 0 0 -1 -1 0 0 0 0 0 -1 0 0 -1 -1 0 0 0zm-16 -3l0 -14 0 0 1 0 1 0 1 0 0 0 1 0 1 0 0 0 1 0 1 0 1 0 0 0 1 0 1 0 0 1 1 0 1 0 0 0 1 0 1 0 1 0 0 1 1 0 0 0 1 0 1 0 0 1 1 0 1 0 0 0 1 1 1 0 0 0 -6 13 0 0 0 0 -1 0 0 -1 -1 0 0 0 -1 0 0 0 -1 0 0 0 0 -1 -1 0 0 0 -1 0 0 0 -1 0 0 0 -1 0 0 0 -1 0 0 0 -1 -1 -1 0 0 0 -1 0 0 0 -1 0 0 0 -1 0 0 0 -1 0 -1 0 0 0zm-10 1l-2 -14 0 0 0 0 0 0 0 -1 1 0 0 0 0 0 1 0 0 0 0 0 1 0 0 0 0 0 1 0 0 0 1 0 0 0 0 0 1 0 0 0 1 0 0 0 1 0 0 0 0 0 1 0 0 0 1 0 0 0 1 0 0 0 1 0 0 0 0 14 0 0 -1 0 0 0 0 0 -1 0 0 0 -1 0 0 0 -1 0 0 0 0 0 -1 0 0 0 0 0 -1 0 0 0 0 0 -1 0 0 0 0 0 -1 0 0 0 0 0 0 0 -1 0 0 1 0 0 0 0 0 0 0 0 0 0 -1 0 0 0zm-6 2l-6 -13 -1 1 1 -1 0 0 0 0 1 0 0 0 0 0 1 -1 0 0 0 0 1 0 0 0 0 0 1 0 0 -1 0 0 1 0 0 0 0 0 1 0 0 0 0 0 1 -1 0 0 0 0 0 0 1 0 0 0 0 0 1 0 0 0 0 0 1 0 2 14 0 0 0 0 0 0 0 0 0 0 0 0 0 0 -1 0 0 0 0 0 0 0 0 0 0 0 -1 0 0 0 0 0 0 1 -1 0 0 0 0 0 0 0 0 0 -1 0 0 0 0 0 -1 1 0 0 0 0 0 0 -1 0 0 0 0 0 0 0zm-19 22l-14 -5 0 0 1 -1 0 -1 1 -1 0 -2 1 -1 0 -1 1 -1 0 -1 1 -1 1 -2 0 -1 1 -1 1 -1 1 -1 0 -1 1 -1 1 -1 1 0 1 -1 1 -1 1 -1 1 -1 1 -1 1 0 1 -1 1 -1 1 -1 1 0 1 -1 1 0 1 -1 2 -1 6 13 -1 1 -1 0 -1 1 -1 0 -1 1 0 0 -1 1 -1 0 -1 1 0 0 -1 1 -1 0 0 1 -1 1 -1 0 0 1 -1 1 0 0 -1 1 0 1 -1 0 0 1 -1 1 0 1 -1 0 0 1 0 1 -1 1 0 1 0 1 -1 1 0 1 0 0zm-3 28l-14 0 0 0 0 -1 0 -2 0 -1 0 -1 0 -1 0 -2 0 -1 0 -1 0 -1 0 -1 0 -1 0 -1 0 -1 0 -2 0 -1 0 -1 1 -1 0 -1 0 -1 0 0 0 -1 0 -1 0 -1 1 -1 0 -1 0 -1 0 -1 0 -1 1 0 0 -1 0 -1 0 -1 14 5 0 0 0 1 -1 0 0 1 0 1 0 0 0 1 0 1 -1 0 0 1 0 1 0 1 0 0 0 1 0 1 0 1 0 1 0 1 -1 1 0 1 0 1 0 1 0 1 0 1 0 1 0 1 0 1 0 1 0 1 0 1 0 2 0 1 0 0zm-14 146l0 -146 14 0 0 146 -7 7 -7 -7zm14 0l0 7 -7 0 7 -7zm-38 -7l31 0 0 14 -31 0 -8 -7 8 -7zm0 14l-8 0 0 -7 8 7zm7 -154l0 147 -15 0 0 -147 0 0 15 0zm-9 -43l13 5 0 0 0 1 0 0 0 1 -1 1 0 1 0 1 0 1 -1 1 0 1 0 1 0 1 0 1 -1 2 0 1 0 1 0 1 0 1 0 1 0 2 -1 1 0 1 0 2 0 1 0 1 0 2 0 1 0 2 0 1 0 2 0 1 0 2 0 1 -15 0 0 -1 0 -2 0 -2 1 -1 0 -2 0 -1 0 -2 0 -1 0 -2 0 -1 0 -2 0 -1 0 -2 0 -1 1 -1 0 -2 0 -1 0 -1 0 -2 0 -1 1 -1 0 -1 0 -2 0 -1 1 -1 0 -1 0 -1 0 -1 1 -2 0 -1 0 -1 1 -1 0 0zm33 -41l7 12 0 0 -1 1 -1 1 -1 1 -1 0 -2 1 -1 1 -1 1 -1 1 -1 1 -1 1 -1 1 -1 1 -1 1 -1 1 0 1 -1 1 -1 1 -1 1 -1 1 0 1 -1 1 -1 1 -1 1 0 2 -1 1 0 1 -1 1 -1 2 0 1 -1 1 0 1 -1 2 -13 -5 0 -1 1 -2 1 -2 0 -1 1 -2 1 -1 0 -2 1 -1 1 -2 1 -1 1 -1 1 -2 1 -1 0 -2 1 -1 2 -1 1 -2 1 -1 1 -1 1 -1 1 -1 1 -2 2 -1 1 -1 1 -1 1 -1 2 -1 1 -1 2 -1 1 -1 1 -1 2 -1 0 0zm21 -9l4 14 0 0 -1 0 -1 1 0 0 -1 0 0 0 -1 0 0 0 -1 1 -1 0 0 0 -1 0 0 0 -1 1 0 0 -1 0 0 0 -1 0 -1 1 0 0 -1 0 0 0 -1 1 0 0 -1 0 0 0 -1 1 0 0 -1 0 0 0 -1 1 0 0 -1 0 -7 -12 1 0 0 -1 1 0 0 0 1 -1 1 0 0 0 1 -1 1 0 0 0 1 -1 1 0 0 0 1 -1 1 0 0 0 1 0 1 -1 0 0 1 0 1 0 0 -1 1 0 1 0 0 0 1 -1 1 0 1 0 0 0 1 0 1 0 0 -1 0 0zm24 -2l0 14 0 0 0 0 -1 0 -1 0 0 0 -1 0 -1 0 0 0 -1 0 -1 0 0 0 -1 0 -1 0 0 0 -1 0 -1 1 0 0 -1 0 0 0 -1 0 -1 0 0 0 -1 0 -1 0 0 0 -1 0 -1 1 0 0 -1 0 0 0 -1 0 -1 0 0 0 -4 -14 1 0 1 0 1 0 0 0 1 0 1 -1 1 0 0 0 1 0 1 0 1 0 0 0 1 0 1 0 1 -1 0 0 1 0 1 0 1 0 0 0 1 0 1 0 1 0 0 0 1 0 1 0 1 0 0 0 1 0 1 0 1 0 0 0 0 0zm43 11l-7 12 0 0 -1 -1 -1 0 -1 -1 -1 0 -1 -1 -1 0 -1 0 -1 -1 -1 0 -1 -1 -1 0 -2 0 -1 -1 -1 0 -1 0 -1 -1 -1 0 -1 0 -1 -1 -1 0 -2 0 -1 0 -1 0 -1 0 -1 -1 -1 0 -2 0 -1 0 -1 0 -1 0 -1 0 -2 0 0 -14 2 0 1 0 2 0 1 0 2 0 1 0 1 0 2 0 1 1 1 0 2 0 1 0 2 0 1 1 1 0 2 0 1 1 1 0 2 0 1 1 1 0 1 1 2 0 1 1 1 0 2 1 1 0 1 1 1 1 2 0 1 1 1 1 0 0zm25 22l-12 8 0 0 -1 -1 0 0 -1 -1 0 -1 -1 0 0 -1 -1 -1 0 0 -1 -1 0 0 -1 -1 0 -1 -1 0 -1 -1 0 0 -1 -1 0 0 -1 -1 -1 -1 0 0 -1 -1 -1 0 0 -1 -1 0 -1 -1 -1 0 0 -1 -1 0 -1 -1 -1 0 0 -1 -1 0 7 -12 1 0 1 1 1 0 1 1 1 0 1 1 0 1 1 0 1 1 1 0 1 1 1 1 0 0 1 1 1 1 1 0 1 1 0 1 1 1 1 0 1 1 0 1 1 1 1 0 0 1 1 1 1 1 0 1 1 0 0 1 1 1 1 1 0 0zm11 40l-14 0 0 0 0 -1 0 -2 0 -1 0 -1 0 -1 -1 -1 0 -1 0 -1 0 -1 0 -1 0 -1 -1 -1 0 -1 0 -1 0 -2 -1 0 0 -1 0 -1 0 -1 -1 -1 0 -1 -1 -1 0 -1 0 -1 -1 -1 0 -1 -1 -1 0 -1 -1 0 0 -1 -1 -1 0 -1 12 -8 0 1 1 1 1 1 0 1 1 1 1 2 0 1 1 1 0 1 1 1 0 1 1 2 0 1 1 1 0 1 0 2 1 1 0 1 0 1 1 2 0 1 0 1 0 2 0 1 1 1 0 2 0 1 0 1 0 2 0 1 0 1 0 2 0 0zm-4 25l-13 -4 0 0 0 -1 0 -1 0 0 0 -1 0 0 1 -1 0 -1 0 0 0 -1 0 0 0 -1 1 -1 0 0 0 -1 0 0 0 -1 0 -1 0 0 0 -1 0 -1 0 0 0 -1 1 -1 0 -1 0 0 0 -1 0 -1 0 0 0 -1 0 -1 0 -1 0 0 14 0 0 1 0 0 0 1 0 1 0 1 0 1 0 1 0 1 0 0 0 1 0 1 0 1 -1 1 0 1 0 0 0 1 0 1 0 1 0 0 0 1 -1 1 0 1 0 1 0 0 0 1 -1 1 0 1 0 0 0 1 0 1 -1 1 0 0 0 0zm-27 19l-5 13 -1 -12 0 -1 1 -1 1 0 1 -1 1 0 1 -1 1 -1 0 0 1 -1 1 -1 1 0 0 -1 1 -1 1 0 0 -1 1 -1 0 -1 1 0 1 -1 0 -1 1 -1 0 0 1 -1 0 -1 1 -1 0 -1 1 -1 0 -1 0 -1 1 -1 0 -1 1 0 13 4 0 2 -1 1 0 1 -1 1 0 1 -1 2 -1 1 0 1 -1 1 -1 1 0 1 -1 1 -1 1 -1 1 0 1 -1 1 -1 1 -1 1 -1 1 -1 1 -1 1 -1 1 0 1 -1 1 -2 1 -1 0 -1 1 -1 1 -1 1 -1 0 -1 1 -1 1 -1 -13zm-5 13l-14 -5 13 -7 1 12zm35 15l-13 5 0 0 -1 -1 0 0 0 -1 -1 -1 0 -1 -1 -1 0 0 -1 -1 0 -1 -1 0 0 -1 -1 -1 -1 0 0 -1 -1 -1 -1 0 0 -1 -1 -1 -1 0 0 -1 -1 0 -1 -1 -1 0 -1 -1 -1 0 0 -1 -1 0 -1 -1 -1 0 -1 -1 -1 0 -1 -1 5 -13 1 1 1 0 2 1 1 0 1 1 1 0 1 1 2 1 1 0 1 1 1 1 1 1 1 1 1 0 1 1 1 1 1 1 1 1 1 1 1 1 1 1 0 1 1 1 1 1 1 1 0 1 1 1 1 1 0 1 1 1 0 2 1 1 0 0zm5 36l-14 0 0 0 0 -2 0 -1 0 -1 0 -1 0 -2 0 -1 0 -1 -1 -1 0 -1 0 -1 0 -1 0 -2 0 -1 0 -1 0 -1 0 -1 0 0 -1 -1 0 -1 0 -1 0 -1 0 -1 0 -1 -1 0 0 -1 0 -1 0 -1 0 0 -1 -1 0 -1 0 0 0 -1 13 -5 0 1 1 1 0 0 0 1 0 1 1 1 0 1 0 1 1 1 0 1 0 1 0 1 0 1 1 1 0 1 0 1 0 2 0 1 0 1 0 1 1 1 0 2 0 1 0 1 0 1 0 2 0 1 0 1 0 2 0 1 0 1 0 2 0 0zm-14 61l0 -61 14 0 0 61 -7 7 -7 -7zm14 0l0 7 -7 0 7 -7z"/>
    </g>
    <g>
     <path id="10" class="fil1" d="M1860 555l28 0 0 14 -28 0 0 0 0 -14zm-28 12l3 -14 0 0 0 0 1 0 1 0 0 0 1 0 1 0 1 0 0 1 1 0 1 0 1 0 0 0 1 0 1 0 1 0 0 0 1 0 1 0 1 0 1 0 1 1 0 0 1 0 1 0 1 0 1 0 1 0 1 0 0 0 1 0 1 0 1 0 0 14 -1 0 -1 0 -1 0 -1 0 -1 0 -1 0 -1 0 -1 0 0 0 -1 0 -1 0 -1 0 -1 0 -1 0 -1 0 -1 -1 -1 0 -1 0 0 0 -1 0 -1 0 -1 0 -1 0 -1 0 0 0 -1 -1 -1 0 -1 0 -1 0 -1 0 0 0 -1 0 0 0zm-25 -11l8 -12 0 0 0 0 1 1 1 0 0 1 1 0 1 0 0 1 1 0 0 0 1 1 1 0 0 0 1 1 0 0 1 0 1 0 0 1 1 0 1 0 0 0 1 1 0 0 1 0 1 0 0 0 1 1 1 0 0 0 1 0 0 0 1 0 1 1 -3 14 -1 -1 -1 0 -1 0 0 0 -1 0 -1 -1 -1 0 -1 0 0 0 -1 -1 -1 0 -1 0 -1 0 0 -1 -1 0 -1 0 -1 -1 0 0 -1 0 -1 -1 -1 0 -1 -1 0 0 -1 0 -1 -1 -1 0 0 -1 -1 0 -1 -1 -1 0 0 -1 -1 0 0 0zm-28 -37l13 -5 0 0 1 1 0 1 0 2 1 1 0 1 1 1 0 1 1 1 1 1 0 1 1 1 0 1 1 1 1 1 0 1 1 1 1 1 0 1 1 1 1 1 1 1 1 0 0 1 1 1 1 1 1 1 1 0 1 1 1 1 1 1 1 0 1 1 -8 12 -1 -1 -2 -1 -1 -1 -1 -1 -1 -1 -1 0 -1 -1 -2 -1 -1 -2 -1 -1 -1 -1 -1 -1 -1 -1 -1 -1 0 -1 -1 -1 -1 -1 -1 -2 -1 -1 -1 -1 -1 -1 0 -2 -1 -1 -1 -1 0 -2 -1 -1 -1 -1 0 -2 -1 -1 0 -2 -1 -1 0 -1 0 0zm-6 -39l14 0 0 0 0 2 0 1 0 1 0 1 0 1 0 2 0 1 0 1 1 1 0 1 0 1 0 1 0 1 0 1 0 1 0 1 1 1 0 2 0 1 0 1 0 1 1 1 0 1 0 0 0 1 0 1 1 1 0 1 0 1 1 1 0 1 0 1 -13 5 -1 -2 0 -1 -1 -1 0 -1 0 -1 0 -1 -1 -1 0 -1 0 -1 0 -1 -1 -2 0 -1 0 -1 0 -1 -1 -1 0 -1 0 -2 0 -1 0 -1 0 -1 0 -1 -1 -2 0 -1 0 -1 0 -1 0 -2 0 -1 0 -1 0 -2 0 -1 0 -1 0 -2 0 0zm14 -150l0 150 -14 0 0 -150 7 -7 7 7zm-14 0l0 -7 7 0 -7 7zm38 7l-31 0 0 -14 31 0 7 7 -7 7zm0 -14l7 0 0 7 -7 -7zm-7 157l0 -150 14 0 0 150 0 0 -14 0zm16 19l-14 4 0 0 0 -1 0 0 0 -1 0 -1 0 0 -1 -1 0 0 0 -1 0 -1 0 0 0 -1 0 -1 0 0 0 -1 0 -1 0 0 -1 -1 0 -1 0 -1 0 0 0 -1 0 -1 0 0 0 -1 0 -1 0 -1 0 -1 0 0 0 -1 0 -1 0 -1 0 -1 14 0 0 1 0 1 0 1 0 0 0 1 0 1 0 0 0 1 0 1 0 0 1 1 0 1 0 0 0 1 0 1 0 0 0 1 0 0 0 1 0 0 0 1 0 1 0 0 0 1 0 0 0 1 1 0 0 1 0 0 0 0 0 1 0 0 0 0zm10 18l-9 10 0 0 -1 0 -1 -1 0 0 -1 -1 -1 -1 0 0 -1 -1 0 -1 -1 0 0 -1 -1 -1 0 -1 -1 0 0 -1 -1 -1 0 -1 -1 0 0 -1 -1 -1 0 -1 0 -1 -1 0 0 -1 -1 -1 0 -1 0 -1 0 -1 -1 -1 0 -1 0 0 -1 -1 0 -1 14 -4 0 1 0 1 1 0 0 1 0 1 0 0 1 1 0 0 0 1 0 1 1 0 0 1 0 0 0 1 1 1 0 0 0 1 1 0 0 1 0 0 1 1 0 0 0 1 1 0 0 1 1 0 0 1 0 0 1 1 0 0 1 0 0 1 0 0zm14 7l-3 14 0 0 0 0 -1 0 -1 0 -1 0 0 -1 -1 0 -1 0 0 0 -1 -1 -1 0 0 0 -1 0 -1 -1 0 0 -1 0 -1 -1 0 0 -1 0 -1 -1 0 0 -1 -1 -1 0 0 0 -1 -1 0 0 -1 -1 -1 0 0 -1 -1 0 0 -1 -1 0 0 -1 9 -10 1 0 0 1 0 0 1 0 0 1 1 0 0 0 0 1 1 0 0 0 1 0 0 1 1 0 0 0 0 0 1 1 0 0 1 0 0 0 1 1 0 0 1 0 0 0 1 0 0 0 1 1 0 0 1 0 0 0 1 0 0 0 1 0 -1 0zm15 2l0 14 0 0 0 0 -1 0 -1 0 0 0 -1 0 -1 0 0 0 -1 0 0 0 -1 0 -1 0 0 0 -1 0 0 0 -1 0 -1 0 0 0 -1 -1 0 0 -1 0 0 0 -1 0 0 0 -1 0 0 0 -1 0 0 0 -1 0 0 0 -1 0 0 0 -1 -1 3 -14 1 1 0 0 0 0 1 0 0 0 0 0 1 0 0 0 1 0 0 0 0 0 1 0 0 0 1 0 0 0 1 0 0 0 1 0 0 0 1 0 0 0 1 1 0 0 1 0 0 0 1 0 0 0 1 0 1 0 0 0 1 0 0 0 0 0zm29 14l-29 0 0 -14 29 0 7 7 -7 7zm0 -14l7 0 0 7 -7 -7zm-7 36l0 -29 14 0 0 29 -7 7 -7 -7zm14 0l0 7 -7 0 7 -7z"/>
    </g>
    <g>
     <path id="11" class="fil1" d="M2128 502l-13 -7 0 0 1 -1 1 -1 0 -2 1 -1 1 -2 0 -1 1 -2 0 -1 1 -2 0 -1 1 -2 0 -1 1 -2 0 -1 1 -2 0 -1 0 -2 1 -1 0 -2 0 -1 0 -2 1 -2 0 -1 0 -2 0 -1 0 -2 1 -2 0 -1 0 -2 0 -2 0 -1 0 -2 14 0 0 2 0 2 0 2 0 1 0 2 0 2 0 2 -1 2 0 2 0 1 0 2 -1 2 0 2 0 2 -1 1 0 2 -1 2 0 2 0 1 -1 2 0 2 -1 1 -1 2 0 2 -1 1 0 2 -1 2 -1 1 -1 2 0 2 -1 1 -1 2 0 0zm-40 46l-8 -12 0 0 2 -1 1 -1 1 -1 2 -1 1 -1 1 -1 2 -1 1 -1 1 -1 1 -2 2 -1 1 -1 1 -1 1 -1 1 -2 1 -1 1 -1 1 -1 2 -2 1 -1 1 -1 1 -2 0 -1 1 -2 1 -1 1 -1 1 -2 1 -1 1 -2 1 -1 1 -2 0 -2 13 7 -1 2 -1 1 -1 2 -1 2 -1 1 -1 2 -1 2 -1 1 -1 2 -1 1 -1 2 -1 2 -1 1 -1 2 -2 1 -1 1 -1 2 -1 1 -2 2 -1 1 -1 1 -2 2 -1 1 -1 1 -2 2 -1 1 -2 1 -1 1 -2 1 -1 2 -2 1 -2 1 0 0zm-66 21l0 -14 0 0 2 0 2 0 2 0 2 -1 2 0 2 0 2 0 2 0 2 -1 1 0 2 0 2 -1 2 0 2 -1 2 0 1 -1 2 0 2 -1 2 -1 2 0 1 -1 2 -1 2 -1 2 -1 1 -1 2 0 2 -1 1 -1 2 -1 2 -2 2 -1 1 -1 8 12 -1 1 -2 1 -2 2 -2 1 -2 1 -2 1 -2 1 -2 1 -2 1 -2 1 -2 1 -2 1 -2 1 -2 0 -2 1 -2 1 -2 0 -2 1 -2 1 -3 0 -2 1 -2 0 -2 0 -2 1 -2 0 -3 0 -2 1 -2 0 -2 0 -2 0 -3 0 -2 0 0 0zm-16 -14l16 0 0 14 -16 0 -7 -7 7 -7zm0 14l-7 0 0 -7 7 7zm7 -36l0 29 -14 0 0 -29 7 -7 7 7zm-14 0l0 -7 7 0 -7 7zm19 7l-12 0 0 -14 12 0 0 0 0 14zm57 -39l10 10 0 0 -1 1 -2 2 -1 2 -2 1 -2 2 -2 2 -1 1 -2 1 -2 2 -2 1 -2 1 -2 2 -2 1 -2 1 -2 1 -2 1 -2 1 -2 0 -3 1 -2 1 -2 1 -2 0 -3 1 -2 0 -2 1 -3 0 -2 0 -3 1 -2 0 -3 0 -2 0 -3 0 0 -14 3 0 2 0 2 -1 2 0 2 0 2 0 2 -1 2 0 2 0 2 -1 2 0 2 -1 2 0 2 -1 1 -1 2 0 2 -1 2 -1 1 -1 2 -1 1 -1 2 -1 2 -1 1 -1 2 -1 1 -1 2 -2 1 -1 1 -1 2 -2 1 -1 2 -2 0 0zm19 -55l15 0 0 0 0 2 0 3 -1 2 0 2 0 2 0 3 0 2 -1 2 0 2 -1 2 0 3 -1 2 0 2 -1 2 0 2 -1 2 -1 2 -1 2 -1 2 0 2 -1 2 -1 2 -1 2 -1 2 -2 1 -1 2 -1 2 -1 2 -1 2 -2 1 -1 2 -2 2 -10 -10 1 -1 1 -2 1 -1 1 -2 1 -1 1 -2 1 -1 1 -2 1 -1 1 -2 1 -2 1 -1 0 -2 1 -1 1 -2 0 -2 1 -2 1 -1 0 -2 1 -2 0 -2 0 -2 1 -1 0 -2 0 -2 1 -2 0 -2 0 -2 0 -2 0 -2 0 -2 0 -2 0 0zm-19 -54l10 -10 0 0 2 2 1 1 2 2 1 2 1 1 1 2 1 2 2 2 1 2 1 2 1 1 1 2 0 2 1 2 1 2 1 2 1 2 0 2 1 2 0 2 1 3 0 2 1 2 0 2 1 2 0 2 0 3 0 2 0 2 1 2 0 3 0 2 -15 0 0 -2 0 -2 0 -2 0 -2 0 -2 0 -2 -1 -2 0 -2 0 -2 -1 -1 0 -2 0 -2 -1 -2 0 -1 -1 -2 -1 -2 0 -2 -1 -1 -1 -2 0 -1 -1 -2 -1 -2 -1 -1 -1 -2 -1 -1 -1 -2 -1 -1 -1 -2 -1 -1 -1 -2 -1 -1 -1 -1 0 0zm-62 -26l0 -14 0 0 3 0 2 0 3 0 3 1 2 0 3 0 3 1 2 0 3 0 2 1 3 1 2 0 3 1 2 1 2 1 3 1 2 0 2 2 2 1 3 1 2 1 2 1 2 2 2 1 2 1 2 2 2 1 1 2 2 2 2 1 2 2 1 2 -10 10 -2 -2 -1 -2 -2 -1 -1 -1 -2 -2 -1 -1 -2 -1 -2 -1 -1 -2 -2 -1 -2 -1 -1 -1 -2 -1 -2 -1 -2 0 -2 -1 -2 -1 -2 -1 -2 0 -2 -1 -2 -1 -2 0 -2 -1 -2 0 -2 0 -3 -1 -2 0 -2 0 -3 0 -2 0 -3 -1 -2 0 0 0zm-20 -14l20 0 0 14 -20 0 -7 -7 7 -7zm-7 7l0 -7 7 0 -7 7zm0 203l0 -203 14 0 0 203 -7 7 -7 -7zm14 0l0 7 -7 0 7 -7zm-38 -7l31 0 0 14 -31 0 -7 -7 7 -7zm0 14l-7 0 0 -7 7 7zm7 -239l0 232 -14 0 0 -232 7 -7 7 7zm-14 0l0 -7 7 0 -7 7zm54 7l-47 0 0 -14 47 0 0 0 0 14zm62 -3l-5 13 0 0 -2 0 -1 -1 -2 0 -1 -1 -2 -1 -1 0 -2 -1 -1 0 -2 0 -2 -1 -1 0 -2 -1 -2 0 -1 0 -2 -1 -2 0 -2 0 -1 -1 -2 0 -2 0 -2 0 -2 -1 -2 0 -2 0 -2 0 -2 0 -2 0 -2 -1 -2 0 -2 0 -2 0 -2 0 0 -14 2 0 3 0 2 0 2 0 2 0 2 0 2 1 3 0 2 0 2 0 2 0 2 1 2 0 2 0 2 0 2 1 2 0 2 0 2 1 1 0 2 1 2 0 2 1 2 0 1 1 2 0 2 1 2 1 1 0 2 1 2 0 1 1 0 0zm57 56l-13 7 0 0 -1 -3 -1 -2 -1 -2 -1 -2 -2 -2 -1 -2 -1 -2 -2 -2 -1 -2 -1 -1 -2 -2 -1 -2 -2 -2 -1 -1 -2 -2 -1 -1 -2 -2 -1 -1 -2 -2 -2 -1 -1 -2 -2 -1 -2 -1 -1 -1 -2 -2 -2 -1 -2 -1 -2 -1 -2 -1 -2 -1 -1 -1 -2 -1 5 -13 3 1 2 1 2 1 2 2 2 1 3 1 2 1 2 2 2 1 2 2 2 1 2 2 2 1 1 2 2 2 2 1 2 2 1 2 2 2 2 2 1 2 2 2 2 2 1 2 2 2 1 2 2 2 1 3 1 2 2 2 1 3 1 2 0 0zm13 56l-14 0 0 0 0 -2 0 -1 0 -2 0 -2 0 -1 -1 -2 0 -1 0 -2 0 -2 0 -1 -1 -2 0 -1 0 -2 0 -1 -1 -2 0 -2 0 -1 -1 -2 0 -1 -1 -2 0 -1 -1 -2 0 -1 -1 -2 0 -1 -1 -2 0 -1 -1 -2 -1 -1 0 -2 -1 -1 -1 -1 13 -7 1 2 1 1 0 2 1 2 1 1 1 2 0 2 1 1 0 2 1 2 1 2 0 1 1 2 0 2 0 1 1 2 0 2 1 2 0 1 0 2 1 2 0 2 0 2 0 1 1 2 0 2 0 2 0 2 0 2 0 1 0 2 0 2 0 0z"/>
    </g>
    <path id="12" class="fil1" d="M1004 289l-23 0c-38,0 -68,-12 -91,-37 -20,-22 -30,-48 -30,-79 0,-30 10,-56 30,-78 22,-25 53,-37 91,-37l23 0 0 29 -20 0c-24,0 -44,6 -61,18 -17,13 -27,29 -31,50l112 0 0 29 -112 0c2,22 11,40 27,55 16,14 36,21 60,21l25 0 0 29z"/>
    <path id="13" class="fil1" d="M1156 289l-29 0c-10,0 -19,0 -26,-2 -8,-2 -16,-5 -23,-10 -12,-8 -21,-19 -25,-33 -4,-11 -6,-23 -6,-36l0 -150 31 0 0 150c0,8 1,15 2,20 3,9 7,16 13,22 5,4 11,7 17,9 4,1 10,1 17,1l29 0 0 29z"/>
    <path id="14" class="fil1" d="M1323 289l-23 0c-38,0 -68,-12 -90,-37 -21,-22 -31,-48 -31,-79 0,-30 10,-56 30,-78 23,-25 53,-37 92,-37l22 0 0 29 -19 0c-24,0 -45,6 -62,18 -17,13 -27,29 -30,50l111 0 0 29 -111 0c2,22 11,40 27,55 16,14 36,21 60,21l24 0 0 29z"/>
    <path id="15" class="fil1" d="M1505 289l-21 0c-22,0 -40,-2 -55,-8 -22,-8 -40,-24 -53,-46 -6,-9 -10,-18 -12,-29 -3,-11 -4,-22 -4,-33 0,-22 5,-42 16,-60 10,-14 22,-26 37,-36 11,-6 22,-11 35,-15 13,-3 26,-4 39,-4l18 0 0 29 -22 0c-19,0 -36,5 -52,14 -12,8 -22,19 -29,31 -7,13 -10,27 -10,41 0,10 1,19 3,28 3,8 6,16 12,24 9,14 21,24 36,29 10,4 22,6 37,6l25 0 0 29z"/>
    <polygon id="16" class="fil1" points="1672,87 1615,87 1615,289 1584,289 1584,87 1527,87 1527,58 1672,58 "/>
    <path id="17" class="fil1" d="M1857 289l-31 0 0 -61c0,-16 -5,-28 -15,-34 -6,-4 -14,-6 -25,-6l-38 0 0 -29 26 0c17,0 29,-4 37,-12 7,-7 11,-16 11,-26 0,-9 -3,-17 -8,-23 -4,-5 -8,-9 -14,-11 -5,-2 -12,-4 -19,-4 -5,0 -9,1 -11,1 -2,0 -5,2 -9,3 -11,5 -18,14 -22,26 -2,7 -3,17 -3,30l0 146 -31 0 0 -146c0,-18 1,-31 5,-41 5,-16 15,-28 30,-38 5,-3 12,-6 19,-7 7,-2 15,-3 22,-3 14,0 28,4 39,10 10,5 17,12 23,20 6,10 10,22 10,36 0,9 -1,16 -4,23 -4,12 -12,21 -23,28 13,5 22,13 26,24 3,7 5,18 5,33l0 61z"/>
    <path id="18" class="fil1" d="M2134 173c0,33 -12,61 -36,85 -24,23 -52,35 -85,35 -32,0 -60,-12 -84,-35 -24,-24 -36,-52 -36,-85 0,-32 12,-61 36,-84 24,-23 52,-35 84,-35 33,0 61,12 85,35 24,23 36,52 36,84zm-32 0c0,-24 -9,-46 -26,-63 -17,-18 -38,-27 -63,-27 -24,0 -45,9 -62,27 -17,17 -26,39 -26,63 0,25 9,46 26,64 17,18 38,26 62,26 25,0 46,-8 63,-26 17,-18 26,-39 26,-64z"/>
    <path id="19" class="fil1" d="M1128 477c0,20 -1,35 -5,45 -6,16 -17,28 -33,36 -10,5 -21,7 -33,7 -8,0 -16,-1 -24,-3 -8,-2 -15,-6 -20,-10 -6,-4 -11,-10 -15,-17 -5,7 -10,12 -16,17 -6,4 -12,8 -20,10 -8,2 -16,3 -23,3 -13,0 -24,-2 -34,-7 -16,-8 -27,-20 -33,-36 -3,-11 -5,-26 -5,-45l0 -147 31 0 0 149c0,14 1,23 2,28 2,10 8,18 17,23 3,2 7,4 11,5 3,1 7,1 12,1 9,0 18,-2 24,-6 9,-6 14,-13 16,-22 1,-5 2,-14 2,-29l0 -149 31 0 0 149c0,14 1,24 2,28 2,10 7,17 16,23 6,4 14,6 24,6 9,0 17,-2 23,-6 9,-5 15,-13 17,-22 1,-6 2,-15 2,-29l0 -149 31 0 0 147z"/>
    <path id="20" class="fil1" d="M1456 446c0,33 -12,61 -36,84 -24,24 -53,35 -85,35 -32,0 -61,-11 -85,-35 -24,-23 -36,-51 -36,-84 0,-33 12,-61 36,-84 24,-24 53,-35 85,-35 32,0 61,11 85,35 24,23 36,51 36,84zm-33 0c0,-25 -8,-46 -25,-64 -17,-17 -38,-26 -63,-26 -25,0 -46,9 -63,26 -17,18 -25,39 -25,64 0,25 8,46 25,64 17,17 38,26 63,26 25,0 46,-9 63,-26 17,-18 25,-39 25,-64z"/>
    <path id="21" class="fil1" d="M1694 562l-31 0 0 -61c0,-17 -5,-28 -15,-34 -6,-4 -14,-6 -25,-6l-38 0 0 -30 26 0c17,0 29,-4 38,-12 6,-6 10,-15 10,-25 0,-10 -3,-17 -8,-24 -4,-4 -8,-8 -14,-10 -5,-3 -12,-4 -19,-4 -5,0 -9,0 -11,1 -2,0 -5,1 -8,3 -12,5 -19,14 -23,25 -2,7 -3,17 -3,31l0 146 -31 0 0 -147c0,-17 1,-31 5,-40 5,-16 15,-29 30,-38 5,-3 12,-6 19,-8 7,-1 15,-2 22,-2 15,0 28,3 40,10 9,5 16,12 22,20 7,10 10,22 10,36 0,8 -1,16 -4,23 -4,12 -12,21 -23,28 13,5 22,13 26,24 3,7 5,18 5,33l0 61z"/>
    <path id="22" class="fil1" d="M1888 562l-28 0c-10,0 -19,-1 -27,-2 -7,-2 -15,-5 -22,-10 -12,-8 -21,-19 -26,-34 -3,-10 -5,-22 -5,-36l0 -150 31 0 0 150c0,9 1,16 2,21 2,9 6,16 12,21 5,5 11,8 18,9 4,1 9,2 16,2l29 0 0 29z"/>
    <path id="23" class="fil1" d="M2134 446c0,19 -4,37 -12,53 -9,17 -22,32 -38,43 -18,13 -39,20 -62,20l-16 0 0 -29 12 0c26,0 47,-9 62,-27 14,-17 22,-37 22,-60 0,-23 -8,-43 -22,-59 -16,-19 -39,-28 -67,-28l-20 0 0 203 -31 0 0 -232 47 0c24,0 43,4 59,11 23,10 41,27 54,52 8,17 12,34 12,53z"/>
    <path class="fil1" d="M1308 695l-44 0 0 56 -18 0 0 -86c0,-13 3,-22 8,-29 8,-10 20,-15 38,-15l16 0 0 17 -18 0c-8,0 -14,1 -17,3 -6,4 -9,12 -9,23l0 15 44 0 0 16z"/>
    <path id="1" class="fil1" d="M1441 751l-65 0c-7,0 -12,0 -14,-1 -6,-2 -8,-6 -8,-12 0,-4 1,-7 2,-11 1,-2 3,-4 6,-8l58 -81 -59 0 0 -17 58 0c6,0 11,1 13,2 5,2 7,6 7,11 0,3 0,5 -1,7 -1,3 -3,7 -7,12l-59 82 69 0 0 16z"/>
    <path id="2" class="fil1" d="M1562 751l-12 0c-12,0 -22,-1 -31,-4 -12,-5 -22,-14 -29,-26 -3,-5 -6,-10 -7,-16 -2,-7 -3,-13 -3,-19 0,-12 4,-23 10,-33 5,-8 12,-15 21,-21 6,-3 12,-6 19,-8 7,-2 15,-3 22,-3l10 0 0 17 -12 0c-11,0 -21,2 -29,8 -7,4 -13,10 -17,17 -3,7 -5,15 -5,23 0,6 0,11 2,16 1,4 3,9 6,13 5,8 12,14 20,17 6,2 13,3 21,3l14 0 0 16z"/>
    <path id="3" class="fil1" d="M1747 686c0,19 -6,34 -20,48 -13,13 -29,19 -47,19 -18,0 -34,-6 -48,-19 -13,-14 -20,-29 -20,-48 0,-18 7,-34 20,-47 14,-13 30,-20 48,-20 18,0 34,7 47,20 14,13 20,29 20,47zm-18 0c0,-14 -5,-25 -14,-35 -9,-10 -21,-15 -35,-15 -14,0 -26,5 -35,15 -10,10 -15,21 -15,35 0,14 5,26 15,36 9,10 21,15 35,15 14,0 26,-5 35,-15 9,-10 14,-22 14,-36z"/>
    <rect class="fil2" x="1819" y="679" width="315.632" height="13.8793"/>
    <rect class="fil2" x="860" y="679" width="315.632" height="13.8793"/>
   </g>
   <g>
    <path class="fil3" d="M670 545l-10 -19 86 9 -48 72 -9 -18c-49,27 -165,76 -311,98 -64,9 -115,5 -143,-8 -28,-13 -38,-31 -41,-47 -6,-27 4,-50 26,-67l5 8c-19,21 -26,53 18,74 71,33 295,-32 427,-102zm-389 -15c15,-7 24,-9 24,-9 0,0 -9,6 -21,14l-3 -5z"/>
    <polygon class="fil4" points="439,198 399,253 385,272 366,298 373,275 377,260 383,237 329,249 403,137 383,207 "/>
    <path class="fil5" d="M444 693c11,-3 23,-5 34,-8l5 -2 7 10c1,2 4,8 6,12 6,-10 13,-19 18,-29l2 -2 3 -1c16,-5 32,-10 48,-16l19 -7 -10 17c-6,9 -11,18 -17,28 -3,5 -6,10 -9,16 -6,10 -12,19 -18,29 -7,10 -13,20 -19,30 -2,4 -9,14 -12,17l-6 4 -4 -5c-6,-7 -11,-15 -15,-23 -4,-6 -7,-13 -12,-20l-30 -48 10 -2zm286 -310l-97 157 -1 2 -2 1c-18,8 -36,16 -54,24l-21 9 137 -219 38 26zm-397 251l-11 1c-13,1 -26,2 -39,2l-4 0 -153 -252 37 -25 170 274zm28 73c15,-2 29,-4 43,-6l16 -3 -62 100 -7 -8c-6,-8 -11,-16 -15,-24 -5,-8 -9,-15 -13,-22 -5,-8 -9,-16 -14,-23l-7 -11 13 0c12,0 24,-1 37,-2l5 -1 0 1 0 -1 4 0zm99 -110c-1,2 -4,6 -4,8l0 5 -5 1c-16,4 -32,8 -48,12l-17 3c42,-61 82,-130 121,-194 -57,22 -112,21 -165,1l77 117 -27 41c-44,-74 -91,-162 -144,-226 -2,-3 -5,-6 -7,-8l-8 -11c-2,-3 -4,-6 -6,-9 -22,-35 -32,-72 -32,-112 0,-39 10,-76 31,-110 21,-34 50,-59 87,-78 92,-47 165,-27 252,9l7 3 -15 35 -8 -4c-80,-40 -169,-49 -243,6 -38,29 -57,72 -63,116l109 0 -26 38 -85 0c14,156 218,238 341,82l2 -3 50 3c-5,26 -23,44 -41,64 -4,5 -8,10 -12,16 -5,7 -10,14 -14,22 -36,58 -71,116 -107,173zm-15 -395l37 0 0 38 -66 0 29 -38z"/>
   </g>
  </g>
 </g>
</svg>
